<?xml version="1.0" encoding="UTF-8"?>
<!DOCTYPE svg PUBLIC "-//W3C//DTD SVG 1.1//EN" "http://www.w3.org/Graphics/SVG/1.1/DTD/svg11.dtd">
<svg xmlns="http://www.w3.org/2000/svg" version="1.1" width="800px" height="287px" style="shape-rendering:geometricPrecision; text-rendering:geometricPrecision; image-rendering:optimizeQuality; fill-rule:evenodd; clip-rule:evenodd" xmlns:xlink="http://www.w3.org/1999/xlink">
<g><path style="opacity:0.716" fill="#ffffff" d="M 273.5,0.5 C 269.381,1.73791 265.047,2.57124 260.5,3C 261.696,3.65431 261.696,4.15431 260.5,4.5C 250.601,4.70265 238.268,8.53598 223.5,16C 221.606,17.1011 220.939,18.4345 221.5,20C 219.324,20.1629 217.491,20.9963 216,22.5C 212.434,27.8292 209.268,33.1625 206.5,38.5C 208.385,28.1086 213.719,19.942 222.5,14C 238.449,5.59574 255.449,1.09574 273.5,0.5 Z"/></g>
<g><path style="opacity:1" fill="#ffffff" d="M 282.5,-0.5 C 300.5,-0.5 318.5,-0.5 336.5,-0.5C 336.833,0.833333 337.167,0.833333 337.5,-0.5C 338.167,-0.5 338.833,-0.5 339.5,-0.5C 339.833,0.833333 340.167,0.833333 340.5,-0.5C 340.833,-0.5 341.167,-0.5 341.5,-0.5C 341.833,0.833333 342.167,0.833333 342.5,-0.5C 342.833,-0.5 343.167,-0.5 343.5,-0.5C 344.893,8.70691 341.56,15.3736 333.5,19.5C 316.338,18.3382 299.005,18.1715 281.5,19C 275.342,19.2141 269.342,20.2141 263.5,22C 264.094,22.4643 264.761,22.631 265.5,22.5C 259.337,24.0819 254.337,27.4152 250.5,32.5C 249.833,33.1667 249.167,33.8333 248.5,34.5C 245.637,38.2466 244.137,42.5799 244,47.5C 243.183,56.7447 243.35,65.9113 244.5,75C 255.191,73.8287 265.858,72.162 276.5,70C 289.86,69.3569 303.194,68.3569 316.5,67C 319.668,66.4177 320.001,65.4177 317.5,64C 319.708,63.8091 321.708,63.3091 323.5,62.5C 328.787,61.6576 334.12,61.3243 339.5,61.5C 340.964,62.1599 342.631,62.4932 344.5,62.5C 423.736,57.1024 503.069,54.7691 582.5,55.5C 606.167,55.6667 629.833,55.8333 653.5,56C 654.953,57.6487 655.953,59.4821 656.5,61.5C 655.069,65.7234 652.069,67.7234 647.5,67.5C 627.669,66.8334 607.669,66.5 587.5,66.5C 559.316,66.299 531.316,66.9657 503.5,68.5C 468.999,68.4738 434.666,69.6404 400.5,72C 399.944,72.3826 399.611,72.8826 399.5,73.5C 384.756,73.3233 370.089,74.3233 355.5,76.5C 351.524,75.8362 347.524,75.5029 343.5,75.5C 343.649,74.448 343.483,73.448 343,72.5C 340.667,75.1667 338.333,75.1667 336,72.5C 335.517,73.448 335.351,74.448 335.5,75.5C 330.167,75.5 324.833,75.5 319.5,75.5C 319.5,76.8333 319.5,78.1667 319.5,79.5C 314.135,79.9564 308.801,80.623 303.5,81.5C 303.5,82.5 303.5,83.5 303.5,84.5C 302.833,84.5 302.167,84.5 301.5,84.5C 295.794,84.1712 290.128,84.5046 284.5,85.5C 277.615,87.2364 270.615,88.4031 263.5,89C 264.167,89.3333 264.833,89.6667 265.5,90C 260.148,90.5206 254.815,91.1872 249.5,92C 247.347,92.0995 245.681,92.9328 244.5,94.5C 243.596,95.209 243.263,96.209 243.5,97.5C 242.676,116.539 241.343,135.539 239.5,154.5C 238.852,156.498 238.019,158.498 237,160.5C 235.059,177.797 233.559,195.13 232.5,212.5C 231.692,212.808 231.025,213.308 230.5,214C 218.833,214.667 207.167,214.667 195.5,214C 192.972,212.983 192.972,211.816 195.5,210.5C 196.651,209.269 197.817,209.269 199,210.5C 200,209.833 201,209.167 202,208.5C 209.695,210.404 217.529,210.904 225.5,210C 227.125,209.147 227.458,208.147 226.5,207C 219.464,206.28 212.464,206.447 205.5,207.5C 205.666,202.489 205.499,197.489 205,192.5C 204.811,197.357 203.811,202.024 202,206.5C 199.059,197.066 197.559,187.399 197.5,177.5C 198.772,157.338 200.105,137.171 201.5,117C 201.499,113.317 201.165,109.817 200.5,106.5C 200.5,105.833 200.5,105.167 200.5,104.5C 200.5,103.5 200.5,102.5 200.5,101.5C 195.951,101.461 191.951,102.794 188.5,105.5C 184.868,106.246 181.202,106.579 177.5,106.5C 177.266,102.765 178.266,99.4318 180.5,96.5C 180.613,89.7486 184.28,86.7486 191.5,87.5C 191.971,91.874 190.971,95.874 188.5,99.5C 190.936,100.332 193.103,99.6653 195,97.5C 194.666,93.8946 196.166,91.5612 199.5,90.5C 201.915,91.3052 204.249,92.3052 206.5,93.5C 208.657,92.0336 208.99,90.2003 207.5,88C 203.847,87.2862 200.347,87.7862 197,89.5C 195.596,89.4907 194.43,88.9907 193.5,88C 196.5,87 199.5,86 202.5,85C 203.91,84.6322 204.91,83.7989 205.5,82.5C 206.195,69.5803 206.195,56.5803 205.5,43.5C 205.216,41.5853 205.549,39.9187 206.5,38.5C 209.268,33.1625 212.434,27.8292 216,22.5C 217.491,20.9963 219.324,20.1629 221.5,20C 220.939,18.4345 221.606,17.1011 223.5,16C 238.268,8.53598 250.601,4.70265 260.5,4.5C 261.696,4.15431 261.696,3.65431 260.5,3C 265.047,2.57124 269.381,1.73791 273.5,0.5C 276.713,0.810002 279.713,0.476669 282.5,-0.5 Z"/></g>
<g><path style="opacity:0.765" fill="#ffffff" d="M 333.5,19.5 C 310.967,20.0927 288.3,21.0927 265.5,22.5C 264.761,22.631 264.094,22.4643 263.5,22C 269.342,20.2141 275.342,19.2141 281.5,19C 299.005,18.1715 316.338,18.3382 333.5,19.5 Z"/></g>
<g><path style="opacity:0.169" fill="#ffffff" d="M 250.5,32.5 C 250.405,34.7857 249.738,36.7857 248.5,38.5C 248.5,37.1667 248.5,35.8333 248.5,34.5C 249.167,33.8333 249.833,33.1667 250.5,32.5 Z"/></g>
<g><path style="opacity:0.288" fill="#ffffff" d="M 657.5,59.5 C 657.5,57.8333 657.5,56.1667 657.5,54.5C 606.167,54.5 554.833,54.5 503.5,54.5C 550.236,53.831 597.069,53.1643 644,52.5C 648.737,53.4692 653.57,53.8025 658.5,53.5C 658.795,55.7354 658.461,57.7354 657.5,59.5 Z"/></g>
<g><path style="opacity:0.869" fill="#ffffff" d="M 145.5,62.5 C 143.266,63.2199 141.099,63.5533 139,63.5C 135.864,62.3991 132.697,61.3991 129.5,60.5C 126.203,61.4959 122.869,61.6626 119.5,61C 121.5,60.6667 123.5,60.3333 125.5,60C 122.5,59 119.5,58 116.5,57C 93.8485,55.8192 71.1818,55.3192 48.5,55.5C 48.8016,58.0593 48.4682,60.3926 47.5,62.5C 46.5233,59.7131 46.19,56.7131 46.5,53.5C 66.7832,52.8012 87.1165,52.9679 107.5,54C 120.827,54.4956 133.493,57.3289 145.5,62.5 Z"/></g>
<g><path style="opacity:0.872" fill="#ffffff" d="M 503.5,54.5 C 554.833,54.5 606.167,54.5 657.5,54.5C 657.5,56.1667 657.5,57.8333 657.5,59.5C 657.672,60.4916 657.338,61.1583 656.5,61.5C 655.953,59.4821 654.953,57.6487 653.5,56C 629.833,55.8333 606.167,55.6667 582.5,55.5C 503.069,54.7691 423.736,57.1024 344.5,62.5C 342.631,62.4932 340.964,62.1599 339.5,61.5C 393.916,56.9705 448.583,54.6372 503.5,54.5 Z"/></g>
<g><path style="opacity:1" fill="#ffffff" d="M 145.5,62.5 C 150.855,64.5058 155.521,67.5058 159.5,71.5C 159.427,73.0269 160.094,74.0269 161.5,74.5C 163.813,76.2094 165.313,78.5428 166,81.5C 167.598,88.9613 167.764,96.2946 166.5,103.5C 164.563,116.615 163.563,129.948 163.5,143.5C 163.5,145.167 163.5,146.833 163.5,148.5C 161.642,157.932 160.642,167.599 160.5,177.5C 160.262,182.36 159.262,187.027 157.5,191.5C 156.476,193.512 154.976,195.178 153,196.5C 152.667,198.167 152.333,199.833 152,201.5C 149.893,202.04 147.726,203.04 145.5,204.5C 144.422,208.384 141.755,210.217 137.5,210C 132.534,213.015 127.534,215.515 122.5,217.5C 94.8118,220.542 67.1451,220.042 39.5,216C 33.2685,214.778 27.2685,212.944 21.5,210.5C 21.0269,209.094 20.0269,208.427 18.5,208.5C 7.62385,203.971 1.29052,195.971 -0.5,184.5C -0.5,180.167 -0.5,175.833 -0.5,171.5C 0.857225,161.293 5.52389,152.793 13.5,146C 29.7943,134.52 47.461,125.686 66.5,119.5C 67.4959,119.414 68.3292,119.748 69,120.5C 69.6054,118.519 70.6054,118.185 72,119.5C 72.7724,118.151 73.9391,117.318 75.5,117C 89.8167,112.846 104.15,108.679 118.5,104.5C 123.852,105.695 125.186,108.529 122.5,113C 123.736,115.248 125.403,115.748 127.5,114.5C 129.239,109.899 128.572,105.732 125.5,102C 128.318,98.6621 129.151,94.8288 128,90.5C 126.125,86.5943 123.625,83.0943 120.5,80C 118.655,78.872 116.655,78.372 114.5,78.5C 109.228,77.1453 103.895,75.9787 98.5,75C 85.5,74.6667 72.5,74.3333 59.5,74C 53.0292,72.6951 49.0292,68.8617 47.5,62.5C 48.4682,60.3926 48.8016,58.0593 48.5,55.5C 71.1818,55.3192 93.8485,55.8192 116.5,57C 119.5,58 122.5,59 125.5,60C 123.5,60.3333 121.5,60.6667 119.5,61C 122.869,61.6626 126.203,61.4959 129.5,60.5C 132.697,61.3991 135.864,62.3991 139,63.5C 141.099,63.5533 143.266,63.2199 145.5,62.5 Z M 116.5,192.5 C 115.539,194.265 115.205,196.265 115.5,198.5C 103.5,198.5 91.5,198.5 79.5,198.5C 70.3648,197.481 61.3648,195.815 52.5,193.5C 43.8023,188.473 40.4689,180.806 42.5,170.5C 44.6115,160.616 49.9448,152.95 58.5,147.5C 70.5391,140.977 82.8725,135.31 95.5,130.5C 103.878,128.375 112.212,126.041 120.5,123.5C 120.833,125.333 121.167,127.167 121.5,129C 119.457,150.144 117.79,171.311 116.5,192.5 Z"/></g>
<g><path style="opacity:1" fill="#ffffff" d="M 740.5,78.5 C 734.244,78.5881 730.077,81.5881 728,87.5C 724.536,97.6259 723.703,107.959 725.5,118.5C 725.81,121.713 725.477,124.713 724.5,127.5C 723.233,135.638 722.566,143.971 722.5,152.5C 722.663,157.547 722.329,162.547 721.5,167.5C 720.113,169.877 719.279,172.543 719,175.5C 717.142,188.101 715.976,200.768 715.5,213.5C 705.494,213.666 695.494,213.5 685.5,213C 684.315,210.213 684.982,207.88 687.5,206C 685.746,201.13 684.913,195.963 685,190.5C 684.092,188.561 682.592,187.561 680.5,187.5C 680.87,174.498 681.37,161.498 682,148.5C 683.584,128.651 685.417,108.984 687.5,89.5C 687.5,88.1667 687.5,86.8333 687.5,85.5C 693.239,72.0977 703.239,63.7643 717.5,60.5C 743.195,56.739 769.195,55.239 795.5,56C 795.833,56.3333 796.167,56.6667 796.5,57C 795.544,59.8771 794.211,62.5438 792.5,65C 792.957,65.414 793.291,65.914 793.5,66.5C 792.141,68.6922 790.308,70.3589 788,71.5C 785.183,66.3757 780.85,64.3757 775,65.5C 768.655,66.8368 762.321,68.1701 756,69.5C 753.766,69.6263 751.432,69.2929 749,68.5C 744.586,69.3029 740.086,69.8029 735.5,70C 734.167,71 734.167,72 735.5,73C 740.439,73.6119 745.273,73.1119 750,71.5C 751.167,71.8333 752.333,72.1667 753.5,72.5C 748.94,74.1036 744.273,75.6036 739.5,77C 740.056,77.3826 740.389,77.8826 740.5,78.5 Z"/></g>
<g><path style="opacity:0.998" fill="#ffffff" d="M 799.5,53.5 C 799.5,54.8333 799.5,56.1667 799.5,57.5C 798.843,64.2972 795.509,69.4639 789.5,73C 778.882,74.2084 768.215,74.8751 757.5,75C 751.748,75.8503 746.081,77.017 740.5,78.5C 740.389,77.8826 740.056,77.3826 739.5,77C 744.273,75.6036 748.94,74.1036 753.5,72.5C 752.333,72.1667 751.167,71.8333 750,71.5C 745.273,73.1119 740.439,73.6119 735.5,73C 734.167,72 734.167,71 735.5,70C 740.086,69.8029 744.586,69.3029 749,68.5C 751.432,69.2929 753.766,69.6263 756,69.5C 762.321,68.1701 768.655,66.8368 775,65.5C 780.85,64.3757 785.183,66.3757 788,71.5C 790.308,70.3589 792.141,68.6922 793.5,66.5C 793.291,65.914 792.957,65.414 792.5,65C 794.211,62.5438 795.544,59.8771 796.5,57C 796.167,56.6667 795.833,56.3333 795.5,56C 769.195,55.239 743.195,56.739 717.5,60.5C 720.906,58.891 724.573,57.7244 728.5,57C 752.05,53.8214 775.717,52.6547 799.5,53.5 Z"/></g>
<g><path style="opacity:1" fill="#ffffff" d="M 248.5,34.5 C 248.5,35.8333 248.5,37.1667 248.5,38.5C 247.792,49.7422 246.792,60.9089 245.5,72C 271.419,68.5125 297.419,65.3458 323.5,62.5C 321.708,63.3091 319.708,63.8091 317.5,64C 320.001,65.4177 319.668,66.4177 316.5,67C 303.194,68.3569 289.86,69.3569 276.5,70C 265.858,72.162 255.191,73.8287 244.5,75C 243.35,65.9113 243.183,56.7447 244,47.5C 244.137,42.5799 245.637,38.2466 248.5,34.5 Z"/></g>
<g><path style="opacity:0.663" fill="#ffffff" d="M 647.5,67.5 C 599.344,68.6049 551.344,69.2715 503.5,69.5C 503.5,69.1667 503.5,68.8333 503.5,68.5C 531.316,66.9657 559.316,66.299 587.5,66.5C 607.669,66.5 627.669,66.8334 647.5,67.5 Z"/></g>
<g><path style="opacity:0.984" fill="#ffffff" d="M 503.5,68.5 C 503.5,68.8333 503.5,69.1667 503.5,69.5C 468.81,70.6459 434.143,72.3126 399.5,74.5C 399.5,74.1667 399.5,73.8333 399.5,73.5C 399.611,72.8826 399.944,72.3826 400.5,72C 434.666,69.6404 468.999,68.4738 503.5,68.5 Z"/></g>
<g><path style="opacity:0.212" fill="#ffffff" d="M 159.5,71.5 C 160.906,71.9731 161.573,72.9731 161.5,74.5C 160.094,74.0269 159.427,73.0269 159.5,71.5 Z"/></g>
<g><path style="opacity:0.999" fill="#ffffff" d="M 399.5,73.5 C 399.5,73.8333 399.5,74.1667 399.5,74.5C 367.551,76.9431 335.551,80.2765 303.5,84.5C 303.5,83.5 303.5,82.5 303.5,81.5C 308.801,80.623 314.135,79.9564 319.5,79.5C 319.5,78.1667 319.5,76.8333 319.5,75.5C 324.833,75.5 330.167,75.5 335.5,75.5C 335.351,74.448 335.517,73.448 336,72.5C 338.333,75.1667 340.667,75.1667 343,72.5C 343.483,73.448 343.649,74.448 343.5,75.5C 347.524,75.5029 351.524,75.8362 355.5,76.5C 370.089,74.3233 384.756,73.3233 399.5,73.5 Z"/></g>
<g><path style="opacity:1" fill="#ffffff" d="M 205.5,43.5 C 206.195,56.5803 206.195,69.5803 205.5,82.5C 204.91,83.7989 203.91,84.6322 202.5,85C 199.5,86 196.5,87 193.5,88C 194.43,88.9907 195.596,89.4907 197,89.5C 200.347,87.7862 203.847,87.2862 207.5,88C 208.99,90.2003 208.657,92.0336 206.5,93.5C 204.249,92.3052 201.915,91.3052 199.5,90.5C 196.166,91.5612 194.666,93.8946 195,97.5C 193.103,99.6653 190.936,100.332 188.5,99.5C 190.971,95.874 191.971,91.874 191.5,87.5C 184.28,86.7486 180.613,89.7486 180.5,96.5C 178.266,99.4318 177.266,102.765 177.5,106.5C 181.202,106.579 184.868,106.246 188.5,105.5C 191.951,102.794 195.951,101.461 200.5,101.5C 200.5,102.5 200.5,103.5 200.5,104.5C 192.268,106.546 183.935,108.213 175.5,109.5C 174.226,101.536 176.06,94.203 181,87.5C 187.885,84.8032 194.885,82.4699 202,80.5C 202.995,68.0007 204.161,55.6673 205.5,43.5 Z"/></g>
<g><path style="opacity:0.993" fill="#ffffff" d="M 623.5,96.5 C 625.792,98.2671 628.458,99.2671 631.5,99.5C 635.41,101.088 638.743,103.421 641.5,106.5C 637.44,106.406 634.107,104.906 631.5,102C 627.567,100.314 623.567,98.8138 619.5,97.5C 618.522,97.9767 617.689,98.6433 617,99.5C 616.667,99.1667 616.333,98.8333 616,98.5C 615.735,100.163 616.235,101.663 617.5,103C 614.304,101.806 611.971,99.4725 610.5,96C 607.899,95.0797 605.232,94.413 602.5,94C 593.255,93.183 584.089,93.3497 575,94.5C 570.13,93.1856 565.13,92.519 560,92.5C 550.172,93.1058 540.339,93.6058 530.5,94C 521.495,95.6257 512.495,97.459 503.5,99.5C 511.015,95.8186 519.015,93.3186 527.5,92C 557.615,88.1367 587.615,88.8034 617.5,94C 619.852,94.2401 621.852,95.0735 623.5,96.5 Z"/></g>
<g><path style="opacity:0.2" fill="#ffffff" d="M 687.5,85.5 C 687.5,86.8333 687.5,88.1667 687.5,89.5C 686.833,90.5 686.167,91.5 685.5,92.5C 685.41,89.8478 686.076,87.5145 687.5,85.5 Z"/></g>
<g><path style="opacity:0.453" fill="#ffffff" d="M 301.5,84.5 C 283.008,88.0985 264.342,91.4318 245.5,94.5C 245.167,94.5 244.833,94.5 244.5,94.5C 245.681,92.9328 247.347,92.0995 249.5,92C 254.815,91.1872 260.148,90.5206 265.5,90C 264.833,89.6667 264.167,89.3333 263.5,89C 270.615,88.4031 277.615,87.2364 284.5,85.5C 290.128,84.5046 295.794,84.1712 301.5,84.5 Z"/></g>
<g><path style="opacity:1" fill="#ffffff" d="M 641.5,106.5 C 642.5,106.833 643.167,107.5 643.5,108.5C 645.583,113.222 646.916,118.222 647.5,123.5C 647.304,125.286 646.471,126.619 645,127.5C 644.667,132.5 644.333,137.5 644,142.5C 643.586,142.957 643.086,143.291 642.5,143.5C 641.978,148.147 640.978,152.647 639.5,157C 639.613,158.28 640.28,159.113 641.5,159.5C 643.583,154.67 645.083,149.67 646,144.5C 647.253,157.049 646.253,169.383 643,181.5C 642.333,182.167 641.667,182.833 641,183.5C 640.494,187.689 639.327,191.689 637.5,195.5C 634.649,196.012 633.316,197.679 633.5,200.5C 629.357,201.238 625.69,203.071 622.5,206C 619.132,207.551 615.632,208.717 612,209.5C 611.721,211.12 610.888,212.453 609.5,213.5C 605.111,215.246 600.444,216.246 595.5,216.5C 589.173,215.818 582.839,215.652 576.5,216C 579.833,216.333 583.167,216.667 586.5,217C 582.644,217.177 578.977,217.677 575.5,218.5C 550.318,221.04 525.318,219.207 500.5,213C 498.509,212.626 496.842,211.793 495.5,210.5C 492.845,206.367 488.512,203.7 482.5,202.5C 480.025,200.23 478.025,197.563 476.5,194.5C 476.267,191.458 475.267,188.792 473.5,186.5C 472.363,180.223 472.363,173.89 473.5,167.5C 475.476,157.403 476.476,147.07 476.5,136.5C 476.198,133.941 476.532,131.607 477.5,129.5C 478.924,127.485 479.59,125.152 479.5,122.5C 483.927,111.255 491.927,103.589 503.5,99.5C 512.495,97.459 521.495,95.6257 530.5,94C 540.339,93.6058 550.172,93.1058 560,92.5C 565.13,92.519 570.13,93.1856 575,94.5C 584.089,93.3497 593.255,93.183 602.5,94C 605.232,94.413 607.899,95.0797 610.5,96C 611.971,99.4725 614.304,101.806 617.5,103C 616.235,101.663 615.735,100.163 616,98.5C 616.333,98.8333 616.667,99.1667 617,99.5C 617.689,98.6433 618.522,97.9767 619.5,97.5C 623.567,98.8138 627.567,100.314 631.5,102C 634.107,104.906 637.44,106.406 641.5,106.5 Z M 606.5,162.5 C 605.212,170.464 603.546,178.464 601.5,186.5C 596.704,190.562 591.371,193.562 585.5,195.5C 582.219,195.42 579.219,196.087 576.5,197.5C 562.782,198.817 549.115,198.317 535.5,196C 518.391,193.316 512.225,183.483 517,166.5C 517.774,153.439 519.107,140.439 521,127.5C 523.167,121.333 527.333,117.167 533.5,115C 538.506,113.665 543.506,112.498 548.5,111.5C 563.639,109.8 578.639,110.634 593.5,114C 603.012,116.01 608.012,121.843 608.5,131.5C 607.052,141.784 606.385,152.118 606.5,162.5 Z"/></g>
<g><path style="opacity:0.01" fill="#ffffff" d="M 244.5,94.5 C 244.833,94.5 245.167,94.5 245.5,94.5C 245.068,95.7095 244.401,96.7095 243.5,97.5C 243.263,96.209 243.596,95.209 244.5,94.5 Z"/></g>
<g><path style="opacity:0.208" fill="#ffffff" d="M 623.5,96.5 C 626.542,96.7329 629.208,97.7329 631.5,99.5C 628.458,99.2671 625.792,98.2671 623.5,96.5 Z"/></g>
<g><path style="opacity:0.833" fill="#ffffff" d="M 740.5,78.5 C 735.524,81.3111 731.691,85.3111 729,90.5C 727.929,99.9944 726.762,109.328 725.5,118.5C 723.703,107.959 724.536,97.6259 728,87.5C 730.077,81.5881 734.244,78.5881 740.5,78.5 Z"/></g>
<g><path style="opacity:0.914" fill="#ffffff" d="M 420.5,108.5 C 418.512,108.827 416.512,109.16 414.5,109.5C 403.737,107.973 393.071,106.139 382.5,104C 366.833,103.333 351.167,103.333 335.5,104C 328.342,105.462 321.008,105.962 313.5,105.5C 319.903,103.598 326.57,102.432 333.5,102C 355.199,100.035 376.866,100.368 398.5,103C 406.186,103.922 413.52,105.755 420.5,108.5 Z"/></g>
<g><path style="opacity:1" fill="#ffffff" d="M 420.5,108.5 C 422.553,108.402 424.22,109.069 425.5,110.5C 428.286,112.168 430.286,114.668 431.5,118C 434.284,119.338 436.784,121.171 439,123.5C 442.108,133.588 443.441,143.922 443,154.5C 440.704,151.612 439.538,152.112 439.5,156C 439.354,158.034 440.02,159.701 441.5,161C 440.718,163.74 440.218,166.574 440,169.5C 438.738,172.364 437.238,175.03 435.5,177.5C 438.133,189.682 439.133,202.015 438.5,214.5C 425.587,214.822 412.754,214.489 400,213.5C 399.288,201.788 400.455,190.288 403.5,179C 402.03,174.095 402.197,169.261 404,164.5C 404.936,168.114 405.436,171.78 405.5,175.5C 406.5,175.5 407.5,175.5 408.5,175.5C 406.778,162.087 405.111,148.754 403.5,135.5C 402.607,133.703 401.274,132.37 399.5,131.5C 397.422,128.949 394.756,127.116 391.5,126C 386.223,124.514 380.889,123.347 375.5,122.5C 375.119,121.069 374.119,120.236 372.5,120C 356.385,119.141 340.385,120.141 324.5,123C 323.692,123.308 323.025,123.808 322.5,124.5C 323.363,125.726 323.363,127.06 322.5,128.5C 318.01,132.478 315.343,137.478 314.5,143.5C 312.883,142.411 312.05,140.744 312,138.5C 310,163.178 308,187.844 306,212.5C 304.933,213.191 303.766,213.691 302.5,214C 291.172,214.5 279.838,214.667 268.5,214.5C 268.809,193.771 270.142,173.105 272.5,152.5C 272.333,150.167 272.167,147.833 272,145.5C 271.819,148.695 271.319,151.695 270.5,154.5C 269.853,129.639 281.519,113.806 305.5,107C 308.117,106.178 310.784,105.678 313.5,105.5C 321.008,105.962 328.342,105.462 335.5,104C 351.167,103.333 366.833,103.333 382.5,104C 393.071,106.139 403.737,107.973 414.5,109.5C 416.512,109.16 418.512,108.827 420.5,108.5 Z"/></g>
<g><path style="opacity:0.996" fill="#ffffff" d="M 114.5,78.5 C 116.655,78.372 118.655,78.872 120.5,80C 123.625,83.0943 126.125,86.5943 128,90.5C 129.151,94.8288 128.318,98.6621 125.5,102C 128.572,105.732 129.239,109.899 127.5,114.5C 125.403,115.748 123.736,115.248 122.5,113C 125.186,108.529 123.852,105.695 118.5,104.5C 104.15,108.679 89.8167,112.846 75.5,117C 73.9391,117.318 72.7724,118.151 72,119.5C 70.6054,118.185 69.6054,118.519 69,120.5C 68.3292,119.748 67.4959,119.414 66.5,119.5C 75.1282,115.399 84.1282,112.066 93.5,109.5C 97.1621,109.277 100.495,108.277 103.5,106.5C 109.999,104.337 116.666,102.337 123.5,100.5C 125.914,90.7882 122.914,83.4549 114.5,78.5 Z"/></g>
<g><path style="opacity:0.322" fill="#ffffff" d="M 103.5,106.5 C 100.495,108.277 97.1621,109.277 93.5,109.5C 96.5046,107.723 99.8379,106.723 103.5,106.5 Z"/></g>
<g><path style="opacity:0.958" fill="#ffffff" d="M 375.5,122.5 C 357.312,120.262 339.645,122.262 322.5,128.5C 323.363,127.06 323.363,125.726 322.5,124.5C 323.025,123.808 323.692,123.308 324.5,123C 340.385,120.141 356.385,119.141 372.5,120C 374.119,120.236 375.119,121.069 375.5,122.5 Z"/></g>
<g><path style="opacity:0.141" fill="#ffffff" d="M 166.5,103.5 C 166.086,117.026 165.086,130.359 163.5,143.5C 163.563,129.948 164.563,116.615 166.5,103.5 Z"/></g>
<g><path style="opacity:1" fill="#ffffff" d="M 643.5,108.5 C 647.409,112.317 649.742,116.984 650.5,122.5C 650.436,136.865 649.77,151.198 648.5,165.5C 648.704,192.291 635.704,208.291 609.5,213.5C 610.888,212.453 611.721,211.12 612,209.5C 615.632,208.717 619.132,207.551 622.5,206C 625.69,203.071 629.357,201.238 633.5,200.5C 633.316,197.679 634.649,196.012 637.5,195.5C 639.327,191.689 640.494,187.689 641,183.5C 641.667,182.833 642.333,182.167 643,181.5C 646.253,169.383 647.253,157.049 646,144.5C 645.083,149.67 643.583,154.67 641.5,159.5C 640.28,159.113 639.613,158.28 639.5,157C 640.978,152.647 641.978,148.147 642.5,143.5C 643.086,143.291 643.586,142.957 644,142.5C 644.333,137.5 644.667,132.5 645,127.5C 646.471,126.619 647.304,125.286 647.5,123.5C 646.916,118.222 645.583,113.222 643.5,108.5 Z"/></g>
<g><path style="opacity:0.227" fill="#ffffff" d="M 479.5,122.5 C 479.59,125.152 478.924,127.485 477.5,129.5C 477.41,126.848 478.076,124.515 479.5,122.5 Z"/></g>
<g><path style="opacity:0.153" fill="#ffffff" d="M 443.5,128.5 C 444.924,130.515 445.59,132.848 445.5,135.5C 444.076,133.485 443.41,131.152 443.5,128.5 Z"/></g>
<g><path style="opacity:0.753" fill="#ffffff" d="M 95.5,130.5 C 82.8725,135.31 70.5391,140.977 58.5,147.5C 58.3893,146.883 58.056,146.383 57.5,146C 59.8082,144.029 62.1415,142.029 64.5,140C 72.4704,137.787 80.1371,134.787 87.5,131C 90.146,130.503 92.8127,130.336 95.5,130.5 Z"/></g>
<g><path style="opacity:0.889" fill="#ffffff" d="M 548.5,111.5 C 543.506,112.498 538.506,113.665 533.5,115C 527.333,117.167 523.167,121.333 521,127.5C 519.107,140.439 517.774,153.439 517,166.5C 512.225,183.483 518.391,193.316 535.5,196C 549.115,198.317 562.782,198.817 576.5,197.5C 579.781,197.58 582.781,196.913 585.5,195.5C 586.873,195.343 588.207,195.51 589.5,196C 581.238,199.586 572.571,201.086 563.5,200.5C 548.774,200.904 534.44,198.904 520.5,194.5C 520.436,195.365 520.103,196.365 519.5,197.5C 520.025,198.192 520.692,198.692 521.5,199C 519.097,199.63 517.263,198.797 516,196.5C 515.654,194.782 515.154,193.115 514.5,191.5C 514.932,173.574 514.932,155.574 514.5,137.5C 517.754,131.632 519.921,125.299 521,118.5C 525.576,116.389 530.076,114.056 534.5,111.5C 539.318,110.188 543.985,110.188 548.5,111.5 Z"/></g>
<g><path style="opacity:0.204" fill="#ffffff" d="M 399.5,131.5 C 401.274,132.37 402.607,133.703 403.5,135.5C 403.821,141.026 403.488,146.36 402.5,151.5C 403.122,144.522 402.122,137.856 399.5,131.5 Z"/></g>
<g><path style="opacity:0.188" fill="#ffffff" d="M 724.5,127.5 C 724.629,136.044 723.962,144.377 722.5,152.5C 722.566,143.971 723.233,135.638 724.5,127.5 Z"/></g>
<g><path style="opacity:0.157" fill="#ffffff" d="M 650.5,122.5 C 651.917,136.91 651.25,151.243 648.5,165.5C 649.77,151.198 650.436,136.865 650.5,122.5 Z"/></g>
<g><path style="opacity:0.176" fill="#ffffff" d="M 476.5,136.5 C 476.476,147.07 475.476,157.403 473.5,167.5C 473.731,156.949 474.731,146.616 476.5,136.5 Z"/></g>
<g><path style="opacity:0.188" fill="#ffffff" d="M 445.5,149.5 C 445.938,149.435 446.272,149.601 446.5,150C 445.586,157.274 444.586,164.441 443.5,171.5C 443.406,163.953 444.072,156.62 445.5,149.5 Z"/></g>
<g><path style="opacity:0.047" fill="#ffffff" d="M 163.5,148.5 C 163.158,158.38 162.158,168.046 160.5,177.5C 160.642,167.599 161.642,157.932 163.5,148.5 Z"/></g>
<g><path style="opacity:1" fill="#ffffff" d="M 425.5,110.5 C 434.5,113.5 440.5,119.5 443.5,128.5C 443.41,131.152 444.076,133.485 445.5,135.5C 446.516,140.23 446.516,144.896 445.5,149.5C 444.072,156.62 443.406,163.953 443.5,171.5C 441.852,182.965 440.852,194.632 440.5,206.5C 440.784,209.777 440.451,212.943 439.5,216C 436.905,216.226 434.405,216.726 432,217.5C 421.158,217.587 409.992,217.254 398.5,216.5C 397.337,210.863 397.17,205.196 398,199.5C 399.271,183.327 400.771,167.327 402.5,151.5C 403.488,146.36 403.821,141.026 403.5,135.5C 405.111,148.754 406.778,162.087 408.5,175.5C 407.5,175.5 406.5,175.5 405.5,175.5C 405.436,171.78 404.936,168.114 404,164.5C 402.197,169.261 402.03,174.095 403.5,179C 400.455,190.288 399.288,201.788 400,213.5C 412.754,214.489 425.587,214.822 438.5,214.5C 439.133,202.015 438.133,189.682 435.5,177.5C 437.238,175.03 438.738,172.364 440,169.5C 440.218,166.574 440.718,163.74 441.5,161C 440.02,159.701 439.354,158.034 439.5,156C 439.538,152.112 440.704,151.612 443,154.5C 443.441,143.922 442.108,133.588 439,123.5C 436.784,121.171 434.284,119.338 431.5,118C 430.286,114.668 428.286,112.168 425.5,110.5 Z"/></g>
<g><path style="opacity:1" fill="#ffffff" d="M 687.5,89.5 C 685.417,108.984 683.584,128.651 682,148.5C 681.37,161.498 680.87,174.498 680.5,187.5C 682.592,187.561 684.092,188.561 685,190.5C 684.913,195.963 685.746,201.13 687.5,206C 684.982,207.88 684.315,210.213 685.5,213C 695.494,213.5 705.494,213.666 715.5,213.5C 715.976,200.768 717.142,188.101 719,175.5C 719.279,172.543 720.113,169.877 721.5,167.5C 720.977,178.26 719.977,188.926 718.5,199.5C 717.194,204.616 716.527,209.949 716.5,215.5C 715.391,216.29 714.058,216.79 712.5,217C 699.833,217.667 687.167,217.667 674.5,217C 674.167,216.667 673.833,216.333 673.5,216C 674.269,209.549 674.936,203.049 675.5,196.5C 676.936,190.053 677.603,183.386 677.5,176.5C 677.961,162.534 679.294,148.701 681.5,135C 681.043,134.586 680.709,134.086 680.5,133.5C 681.787,119.661 683.454,105.994 685.5,92.5C 686.167,91.5 686.833,90.5 687.5,89.5 Z"/></g>
<g><path style="opacity:0.894" fill="#ffffff" d="M 606.5,162.5 C 606.128,169.837 605.628,177.171 605,184.5C 604.667,183.833 604.333,183.167 604,182.5C 603.8,184.32 602.966,185.653 601.5,186.5C 603.546,178.464 605.212,170.464 606.5,162.5 Z"/></g>
<g><path style="opacity:0.682" fill="#ffffff" d="M 42.5,170.5 C 40.4689,180.806 43.8023,188.473 52.5,193.5C 50.9397,193.481 49.4397,193.148 48,192.5C 46.3122,190.481 44.3122,188.814 42,187.5C 41.1816,181.651 41.3483,175.985 42.5,170.5 Z"/></g>
<g><path style="opacity:0.243" fill="#ffffff" d="M 473.5,186.5 C 475.267,188.792 476.267,191.458 476.5,194.5C 474.733,192.208 473.733,189.542 473.5,186.5 Z"/></g>
<g><path style="opacity:0.114" fill="#ffffff" d="M 443.5,171.5 C 443.388,183.388 442.388,195.054 440.5,206.5C 440.852,194.632 441.852,182.965 443.5,171.5 Z"/></g>
<g><path style="opacity:0.314" fill="#ffffff" d="M 677.5,176.5 C 677.603,183.386 676.936,190.053 675.5,196.5C 675.397,189.614 676.064,182.947 677.5,176.5 Z"/></g>
<g><path style="opacity:0.4" fill="#ffffff" d="M 585.5,195.5 C 582.781,196.913 579.781,197.58 576.5,197.5C 579.219,196.087 582.219,195.42 585.5,195.5 Z"/></g>
<g><path style="opacity:0.141" fill="#ffffff" d="M 116.5,192.5 C 116.5,194.833 116.5,197.167 116.5,199.5C 103.989,199.829 91.6554,199.495 79.5,198.5C 91.5,198.5 103.5,198.5 115.5,198.5C 115.205,196.265 115.539,194.265 116.5,192.5 Z"/></g>
<g><path style="opacity:0.918" fill="#ffffff" d="M 482.5,202.5 C 488.512,203.7 492.845,206.367 495.5,210.5C 490.321,209.083 485.988,206.417 482.5,202.5 Z"/></g>
<g><path style="opacity:1" fill="#ffffff" d="M 200.5,106.5 C 201.165,109.817 201.499,113.317 201.5,117C 200.105,137.171 198.772,157.338 197.5,177.5C 197.559,187.399 199.059,197.066 202,206.5C 203.811,202.024 204.811,197.357 205,192.5C 205.499,197.489 205.666,202.489 205.5,207.5C 212.464,206.447 219.464,206.28 226.5,207C 227.458,208.147 227.125,209.147 225.5,210C 217.529,210.904 209.695,210.404 202,208.5C 201,209.167 200,209.833 199,210.5C 197.817,209.269 196.651,209.269 195.5,210.5C 192.972,211.816 192.972,212.983 195.5,214C 207.167,214.667 218.833,214.667 230.5,214C 231.025,213.308 231.692,212.808 232.5,212.5C 233.559,195.13 235.059,177.797 237,160.5C 238.019,158.498 238.852,156.498 239.5,154.5C 238.281,175.232 236.448,195.898 234,216.5C 220.028,217.617 205.862,217.617 191.5,216.5C 193.992,179.771 196.992,143.105 200.5,106.5 Z"/></g>
<g><path style="opacity:0.122" fill="#ffffff" d="M 18.5,208.5 C 20.0269,208.427 21.0269,209.094 21.5,210.5C 19.9731,210.573 18.9731,209.906 18.5,208.5 Z"/></g>
<g><path style="opacity:0.255" fill="#ffffff" d="M 309.5,199.5 C 309.55,205.389 308.884,211.056 307.5,216.5C 307.45,210.611 308.116,204.944 309.5,199.5 Z"/></g>
<g><path style="opacity:0.173" fill="#ffffff" d="M 718.5,199.5 C 718.624,205.069 717.957,210.402 716.5,215.5C 716.527,209.949 717.194,204.616 718.5,199.5 Z"/></g>
<g><path style="opacity:0.778" fill="#ffffff" d="M 157.5,191.5 C 153.583,204.58 144.917,212.747 131.5,216C 128.568,216.953 125.568,217.453 122.5,217.5C 127.534,215.515 132.534,213.015 137.5,210C 141.755,210.217 144.422,208.384 145.5,204.5C 147.726,203.04 149.893,202.04 152,201.5C 152.333,199.833 152.667,198.167 153,196.5C 154.976,195.178 156.476,193.512 157.5,191.5 Z"/></g>
<g><path style="opacity:0.943" fill="#ffffff" d="M 314.5,143.5 C 312.831,162.189 311.164,180.856 309.5,199.5C 308.116,204.944 307.45,210.611 307.5,216.5C 293.981,217.773 280.148,217.773 266,216.5C 266.327,195.742 267.827,175.075 270.5,154.5C 271.319,151.695 271.819,148.695 272,145.5C 272.167,147.833 272.333,150.167 272.5,152.5C 270.142,173.105 268.809,193.771 268.5,214.5C 279.838,214.667 291.172,214.5 302.5,214C 303.766,213.691 304.933,213.191 306,212.5C 308,187.844 310,163.178 312,138.5C 312.05,140.744 312.883,142.411 314.5,143.5 Z"/></g>
<g><path style="opacity:0.985" fill="#ffffff" d="M 595.5,216.5 C 589.072,218.126 582.405,218.793 575.5,218.5C 578.977,217.677 582.644,217.177 586.5,217C 583.167,216.667 579.833,216.333 576.5,216C 582.839,215.652 589.173,215.818 595.5,216.5 Z"/></g>
<g><path style="opacity:0.235" fill="#ffffff" d="M 651.5,247.5 C 650.391,247.443 649.391,247.11 648.5,246.5C 644.141,244.245 639.474,243.245 634.5,243.5C 626.662,242.48 618.662,242.48 610.5,243.5C 622.082,239.788 634.082,239.955 646.5,244C 648.584,244.697 650.251,245.864 651.5,247.5 Z"/></g>
<g><path style="opacity:0.318" fill="#ffffff" d="M 375.5,243.5 C 363.824,242.249 352.157,242.249 340.5,243.5C 352.148,239.6 363.815,239.6 375.5,243.5 Z"/></g>
<g><path style="opacity:0.247" fill="#ffffff" d="M 513.5,246.5 C 497.741,241.063 482.075,241.23 466.5,247C 464.963,248.707 463.296,250.207 461.5,251.5C 462.989,247.847 465.656,245.347 469.5,244C 482.086,240.08 494.753,239.747 507.5,243C 510.025,243.424 512.025,244.59 513.5,246.5 Z"/></g>
<g><path style="opacity:1" fill="#ffffff" d="M 375.5,243.5 C 378.854,244.261 381.687,245.928 384,248.5C 384.684,249.784 384.517,250.951 383.5,252C 376.907,255.65 370.907,254.816 365.5,249.5C 363.105,248.234 360.438,247.568 357.5,247.5C 352.823,248.169 348.157,248.835 343.5,249.5C 344.828,248.493 345.828,247.16 346.5,245.5C 339.524,244.001 334.024,246.334 330,252.5C 329.653,258.015 329.153,263.515 328.5,269C 329.178,272.195 330.012,275.362 331,278.5C 334.006,280.035 337.173,280.535 340.5,280C 339.643,279.311 338.977,278.478 338.5,277.5C 338.281,272.822 338.615,268.156 339.5,263.5C 339.185,267.371 339.518,271.038 340.5,274.5C 349.023,279.06 357.689,279.727 366.5,276.5C 367.288,275.23 368.288,274.23 369.5,273.5C 370.171,272.153 370.171,270.986 369.5,270C 365.833,269.667 362.167,269.333 358.5,269C 357.944,268.617 357.611,268.117 357.5,267.5C 356.058,266.18 355.392,264.514 355.5,262.5C 360.167,262.5 364.833,262.5 369.5,262.5C 374.41,262.119 379.743,262.119 385.5,262.5C 384.993,267.223 384.16,271.889 383,276.5C 381.749,279.381 379.583,281.214 376.5,282C 364.732,285.366 352.732,286.366 340.5,285C 336.736,284.148 333.403,282.648 330.5,280.5C 327.093,273.978 325.759,266.978 326.5,259.5C 326.585,250.086 331.251,244.752 340.5,243.5C 352.157,242.249 363.824,242.249 375.5,243.5 Z"/></g>
<g><path style="opacity:1" fill="#ffffff" d="M 513.5,246.5 C 515.453,247.626 516.953,249.292 518,251.5C 518.667,257.167 518.667,262.833 518,268.5C 517.434,270.723 516.6,272.723 515.5,274.5C 515.941,267.493 516.108,260.493 516,253.5C 515.293,251.919 514.46,250.419 513.5,249C 510.141,247.617 506.807,246.284 503.5,245C 496.833,244.333 490.167,244.333 483.5,245C 491.608,245.119 499.108,247.286 506,251.5C 506.388,259.185 506.055,266.851 505,274.5C 503.644,275.38 502.144,275.714 500.5,275.5C 501.167,274.167 501.833,272.833 502.5,271.5C 504.16,265.39 504.66,259.056 504,252.5C 503.29,251.027 502.124,250.36 500.5,250.5C 498.585,250.784 496.919,250.451 495.5,249.5C 490.36,248.512 485.026,248.179 479.5,248.5C 479.881,247.069 480.881,246.236 482.5,246C 478.705,245.163 475.039,245.496 471.5,247C 472.654,247.914 472.487,248.747 471,249.5C 470.311,248.643 469.478,247.977 468.5,247.5C 465.785,249.548 463.452,251.882 461.5,254.5C 461.5,253.5 461.5,252.5 461.5,251.5C 463.296,250.207 464.963,248.707 466.5,247C 482.075,241.23 497.741,241.063 513.5,246.5 Z"/></g>
<g><path style="opacity:0.733" fill="#ffffff" d="M 540.5,269.5 C 540.5,261.5 540.5,253.5 540.5,245.5C 537.167,245.5 533.833,245.5 530.5,245.5C 530.843,247.483 530.176,248.817 528.5,249.5C 528.064,246.636 528.897,244.303 531,242.5C 534.667,243.167 538.333,243.833 542,244.5C 542.627,253.04 542.127,261.373 540.5,269.5 Z"/></g>
<g><path style="opacity:0.893" fill="#ffffff" d="M 634.5,243.5 C 629.309,243.058 624.309,243.558 619.5,245C 626.132,246.232 632.799,247.398 639.5,248.5C 639.5,249.833 639.5,251.167 639.5,252.5C 637.426,251.486 635.426,250.486 633.5,249.5C 627.63,248.234 621.63,248.234 615.5,249.5C 615.577,248.25 616.244,247.417 617.5,247C 614.622,244.55 611.288,243.884 607.5,245C 604.37,247.128 601.537,249.628 599,252.5C 596.931,262.049 595.765,271.715 595.5,281.5C 598.833,281.5 602.167,281.5 605.5,281.5C 606.903,273.443 607.903,265.443 608.5,257.5C 608.5,263.167 608.5,268.833 608.5,274.5C 608.599,277.237 608.265,279.904 607.5,282.5C 603.167,282.5 598.833,282.5 594.5,282.5C 594.5,278.167 594.5,273.833 594.5,269.5C 593.805,262.474 594.972,255.807 598,249.5C 601.469,246.015 605.636,244.015 610.5,243.5C 618.662,242.48 626.662,242.48 634.5,243.5 Z"/></g>
<g><path style="opacity:0.98" fill="#ffffff" d="M 443.5,265.5 C 443.5,264.5 443.5,263.5 443.5,262.5C 444.833,262.5 446.167,262.5 447.5,262.5C 449.229,258.33 449.729,253.997 449,249.5C 447.891,247.185 446.057,245.685 443.5,245C 436.512,244.334 429.512,243.834 422.5,243.5C 413.97,243.036 406.137,245.036 399,249.5C 393.957,259.882 391.79,270.882 392.5,282.5C 396.555,282.824 400.555,282.491 404.5,281.5C 405.067,279.018 405.734,276.684 406.5,274.5C 406.5,274.833 406.5,275.167 406.5,275.5C 406.708,277.92 406.374,280.253 405.5,282.5C 400.88,283.493 396.214,283.827 391.5,283.5C 391.182,273.395 392.016,263.395 394,253.5C 396.232,248.269 400.065,244.769 405.5,243C 415.448,241.469 425.448,241.135 435.5,242C 440.146,242.326 444.479,243.66 448.5,246C 454.876,254.63 453.209,261.13 443.5,265.5 Z"/></g>
<g><path style="opacity:0.039" fill="#ffffff" d="M 633.5,249.5 C 626.368,249.108 619.368,249.775 612.5,251.5C 612.973,250.094 613.973,249.427 615.5,249.5C 621.63,248.234 627.63,248.234 633.5,249.5 Z"/></g>
<g><path style="opacity:0.098" fill="#ffffff" d="M 365.5,249.5 C 357.694,248.665 350.027,249.665 342.5,252.5C 342.263,251.209 342.596,250.209 343.5,249.5C 348.157,248.835 352.823,248.169 357.5,247.5C 360.438,247.568 363.105,248.234 365.5,249.5 Z"/></g>
<g><path style="opacity:0.318" fill="#ffffff" d="M 574.5,244.5 C 578.634,243.515 582.968,243.182 587.5,243.5C 587.823,250.022 587.49,256.355 586.5,262.5C 586.5,256.5 586.5,250.5 586.5,244.5C 582.5,244.5 578.5,244.5 574.5,244.5 Z"/></g>
<g><path style="opacity:0.467" fill="#ffffff" d="M 715.5,263.5 C 716.15,261.565 716.483,259.565 716.5,257.5C 717.725,256.848 718.392,255.681 718.5,254C 717.672,249.008 714.672,246.174 709.5,245.5C 707.723,244.4 705.723,243.566 703.5,243C 695.167,242.333 686.833,242.333 678.5,243C 677.584,243.278 676.918,243.778 676.5,244.5C 675.5,244.5 674.5,244.5 673.5,244.5C 672.833,244.5 672.167,244.5 671.5,244.5C 683.506,239.742 695.84,239.242 708.5,243C 712.419,244.54 715.919,246.707 719,249.5C 721.076,255.005 719.909,259.672 715.5,263.5 Z"/></g>
<g><path style="opacity:1" fill="#ffffff" d="M 515.5,274.5 C 509.968,277.517 504.301,280.35 498.5,283C 492.167,283.667 485.833,283.667 479.5,283C 473.478,281.827 467.478,280.66 461.5,279.5C 458.867,271.136 458.867,262.802 461.5,254.5C 463.452,251.882 465.785,249.548 468.5,247.5C 469.478,247.977 470.311,248.643 471,249.5C 472.487,248.747 472.654,247.914 471.5,247C 475.039,245.496 478.705,245.163 482.5,246C 480.881,246.236 479.881,247.069 479.5,248.5C 476.195,249.805 473.862,252.138 472.5,255.5C 470.797,261.943 470.297,268.609 471,275.5C 472.978,278.574 475.812,280.241 479.5,280.5C 485.147,279.811 490.814,279.311 496.5,279C 498.55,278.584 499.884,277.417 500.5,275.5C 502.144,275.714 503.644,275.38 505,274.5C 506.055,266.851 506.388,259.185 506,251.5C 499.108,247.286 491.608,245.119 483.5,245C 490.167,244.333 496.833,244.333 503.5,245C 506.807,246.284 510.141,247.617 513.5,249C 514.46,250.419 515.293,251.919 516,253.5C 516.108,260.493 515.941,267.493 515.5,274.5 Z M 495.5,249.5 C 496.919,250.451 498.585,250.784 500.5,250.5C 502.16,252.322 503.16,254.489 503.5,257C 502.642,261.795 502.309,266.628 502.5,271.5C 501.833,272.833 501.167,274.167 500.5,275.5C 493.307,277.463 485.974,277.963 478.5,277C 476.548,276.634 474.882,275.801 473.5,274.5C 468.946,255.396 476.28,247.063 495.5,249.5 Z"/></g>
<g><path style="opacity:0.239" fill="#ffffff" d="M 479.5,248.5 C 485.026,248.179 490.36,248.512 495.5,249.5C 476.28,247.063 468.946,255.396 473.5,274.5C 472.51,268.355 472.177,262.022 472.5,255.5C 473.862,252.138 476.195,249.805 479.5,248.5 Z"/></g>
<g><path style="opacity:1" fill="#ffffff" d="M 540.5,269.5 C 540.5,270.167 540.5,270.833 540.5,271.5C 539.337,277.334 541.671,280 547.5,279.5C 556.638,281.714 565.305,280.381 573.5,275.5C 574.466,273.211 575.799,271.211 577.5,269.5C 575.304,263.359 574.971,257.025 576.5,250.5C 577.672,250.081 578.672,249.415 579.5,248.5C 578.359,247.575 578.359,246.741 579.5,246C 581.473,245.505 583.473,245.338 585.5,245.5C 585.5,247.5 585.5,249.5 585.5,251.5C 582.05,250.756 580.384,252.09 580.5,255.5C 581.5,255.5 582.5,255.5 583.5,255.5C 583.407,260.575 582.741,265.575 581.5,270.5C 580.5,271 579.5,271.5 578.5,272C 580.229,273.789 580.896,275.956 580.5,278.5C 564.234,284.852 547.901,285.019 531.5,279C 530.299,278.097 529.465,276.931 529,275.5C 528.5,266.84 528.334,258.173 528.5,249.5C 530.176,248.817 530.843,247.483 530.5,245.5C 533.833,245.5 537.167,245.5 540.5,245.5C 540.5,253.5 540.5,261.5 540.5,269.5 Z"/></g>
<g><path style="opacity:1" fill="#ffffff" d="M 574.5,244.5 C 578.5,244.5 582.5,244.5 586.5,244.5C 586.5,250.5 586.5,256.5 586.5,262.5C 586.992,277.007 579.992,284.341 565.5,284.5C 554.753,284.86 544.086,284.194 533.5,282.5C 530.5,281.5 528.5,279.5 527.5,276.5C 527.5,269.833 527.5,263.167 527.5,256.5C 527.198,253.941 527.532,251.607 528.5,249.5C 528.334,258.173 528.5,266.84 529,275.5C 529.465,276.931 530.299,278.097 531.5,279C 547.901,285.019 564.234,284.852 580.5,278.5C 580.896,275.956 580.229,273.789 578.5,272C 579.5,271.5 580.5,271 581.5,270.5C 582.741,265.575 583.407,260.575 583.5,255.5C 582.5,255.5 581.5,255.5 580.5,255.5C 580.384,252.09 582.05,250.756 585.5,251.5C 585.5,249.5 585.5,247.5 585.5,245.5C 583.473,245.338 581.473,245.505 579.5,246C 578.359,246.741 578.359,247.575 579.5,248.5C 578.672,249.415 577.672,250.081 576.5,250.5C 574.971,257.025 575.304,263.359 577.5,269.5C 575.799,271.211 574.466,273.211 573.5,275.5C 565.305,280.381 556.638,281.714 547.5,279.5C 552.179,279.666 556.845,279.499 561.5,279C 563.058,278.79 564.391,278.29 565.5,277.5C 567.473,276.194 569.139,274.527 570.5,272.5C 571.469,270.337 572.302,268.004 573,265.5C 573.5,259.175 573.666,252.842 573.5,246.5C 573.328,245.508 573.662,244.842 574.5,244.5 Z"/></g>
<g><path style="opacity:1" fill="#ffffff" d="M 709.5,245.5 C 714.672,246.174 717.672,249.008 718.5,254C 718.392,255.681 717.725,256.848 716.5,257.5C 714.787,258.635 714.12,260.302 714.5,262.5C 711.017,261.916 708.017,262.749 705.5,265C 696.96,267.076 688.294,267.909 679.5,267.5C 678.766,266.292 678.433,264.959 678.5,263.5C 683.5,263.5 688.5,263.5 693.5,263.5C 698.606,264.075 703.106,262.741 707,259.5C 707.981,254.974 706.814,251.14 703.5,248C 697.957,247.763 692.623,246.596 687.5,244.5C 689.167,244.167 690.833,243.833 692.5,243.5C 698.069,244.897 703.735,245.563 709.5,245.5 Z"/></g>
<g><path style="opacity:1" fill="#ffffff" d="M 615.5,249.5 C 613.973,249.427 612.973,250.094 612.5,251.5C 612.5,252.167 612.167,252.5 611.5,252.5C 610.065,253.913 609.065,255.58 608.5,257.5C 607.903,265.443 606.903,273.443 605.5,281.5C 602.167,281.5 598.833,281.5 595.5,281.5C 595.765,271.715 596.931,262.049 599,252.5C 601.537,249.628 604.37,247.128 607.5,245C 611.288,243.884 614.622,244.55 617.5,247C 616.244,247.417 615.577,248.25 615.5,249.5 Z"/></g>
<g><path style="opacity:1" fill="#ffffff" d="M 343.5,249.5 C 342.596,250.209 342.263,251.209 342.5,252.5C 341.21,253.058 340.377,254.058 340,255.5C 339.503,258.146 339.336,260.813 339.5,263.5C 338.615,268.156 338.281,272.822 338.5,277.5C 338.977,278.478 339.643,279.311 340.5,280C 337.173,280.535 334.006,280.035 331,278.5C 330.012,275.362 329.178,272.195 328.5,269C 329.153,263.515 329.653,258.015 330,252.5C 334.024,246.334 339.524,244.001 346.5,245.5C 345.828,247.16 344.828,248.493 343.5,249.5 Z"/></g>
<g><path style="opacity:0.478" fill="#ffffff" d="M 342.5,252.5 C 341.062,259.752 340.396,267.086 340.5,274.5C 339.518,271.038 339.185,267.371 339.5,263.5C 339.336,260.813 339.503,258.146 340,255.5C 340.377,254.058 341.21,253.058 342.5,252.5 Z"/></g>
<g><path style="opacity:1" fill="#ffffff" d="M 648.5,246.5 C 649.391,247.11 650.391,247.443 651.5,247.5C 655.967,254.039 654.967,259.872 648.5,265C 639.307,269.009 629.64,270.509 619.5,269.5C 619.5,269.167 619.5,268.833 619.5,268.5C 629.586,269.803 638.919,267.97 647.5,263C 644.972,262.331 644.972,261.498 647.5,260.5C 648.167,260.833 648.833,261.167 649.5,261.5C 650.923,259.223 651.589,256.723 651.5,254C 651.307,251.043 650.307,248.543 648.5,246.5 Z"/></g>
<g><path style="opacity:0.325" fill="#ffffff" d="M 500.5,250.5 C 502.124,250.36 503.29,251.027 504,252.5C 504.66,259.056 504.16,265.39 502.5,271.5C 502.309,266.628 502.642,261.795 503.5,257C 503.16,254.489 502.16,252.322 500.5,250.5 Z"/></g>
<g><path style="opacity:0.282" fill="#ffffff" d="M 639.5,257.5 C 638.976,260.188 637.309,261.688 634.5,262C 627.563,263.288 620.563,263.788 613.5,263.5C 613.651,267.314 615.651,268.981 619.5,268.5C 619.5,268.833 619.5,269.167 619.5,269.5C 614.227,270.056 611.894,267.889 612.5,263C 619.525,262.588 626.525,261.921 633.5,261C 635.692,260.074 637.692,258.907 639.5,257.5 Z"/></g>
<g><path style="opacity:0.071" fill="#ffffff" d="M 663.5,250.5 C 661.437,258 660.437,265.666 660.5,273.5C 659.35,268.684 659.184,263.684 660,258.5C 660.322,255.334 661.489,252.667 663.5,250.5 Z"/></g>
<g><path style="opacity:0.706" fill="#ffffff" d="M 573.5,246.5 C 573.666,252.842 573.5,259.175 573,265.5C 572.302,268.004 571.469,270.337 570.5,272.5C 571.076,263.644 572.076,254.977 573.5,246.5 Z"/></g>
<g><path style="opacity:0.165" fill="#ffffff" d="M 611.5,252.5 C 610.148,259.914 609.148,267.247 608.5,274.5C 608.5,268.833 608.5,263.167 608.5,257.5C 609.065,255.58 610.065,253.913 611.5,252.5 Z"/></g>
<g><path style="opacity:0.365" fill="#ffffff" d="M 697.5,261.5 C 696.167,262.167 694.833,262.833 693.5,263.5C 688.5,263.5 683.5,263.5 678.5,263.5C 678.433,264.959 678.766,266.292 679.5,267.5C 679.5,267.833 679.5,268.167 679.5,268.5C 677.313,266.718 676.98,264.552 678.5,262C 684.785,262.429 691.118,262.262 697.5,261.5 Z"/></g>
<g><path style="opacity:1" fill="#ffffff" d="M 716.5,257.5 C 716.483,259.565 716.15,261.565 715.5,263.5C 704.025,269.328 692.025,270.994 679.5,268.5C 679.5,268.167 679.5,267.833 679.5,267.5C 688.294,267.909 696.96,267.076 705.5,265C 708.017,262.749 711.017,261.916 714.5,262.5C 714.12,260.302 714.787,258.635 716.5,257.5 Z"/></g>
<g><path style="opacity:0.102" fill="#ffffff" d="M 369.5,262.5 C 364.833,262.5 360.167,262.5 355.5,262.5C 355.392,264.514 356.058,266.18 357.5,267.5C 356.504,267.586 355.671,267.252 355,266.5C 354.506,264.866 354.34,263.199 354.5,261.5C 359.695,261.179 364.695,261.513 369.5,262.5 Z"/></g>
<g><path style="opacity:0.968" fill="#ffffff" d="M 634.5,243.5 C 639.474,243.245 644.141,244.245 648.5,246.5C 650.307,248.543 651.307,251.043 651.5,254C 651.589,256.723 650.923,259.223 649.5,261.5C 648.833,261.167 648.167,260.833 647.5,260.5C 644.972,261.498 644.972,262.331 647.5,263C 638.919,267.97 629.586,269.803 619.5,268.5C 615.651,268.981 613.651,267.314 613.5,263.5C 620.563,263.788 627.563,263.288 634.5,262C 637.309,261.688 638.976,260.188 639.5,257.5C 639.5,255.833 639.5,254.167 639.5,252.5C 639.5,251.167 639.5,249.833 639.5,248.5C 632.799,247.398 626.132,246.232 619.5,245C 624.309,243.558 629.309,243.058 634.5,243.5 Z"/></g>
<g><path style="opacity:0.329" fill="#ffffff" d="M 461.5,251.5 C 461.5,252.5 461.5,253.5 461.5,254.5C 458.867,262.802 458.867,271.136 461.5,279.5C 460.21,278.942 459.377,277.942 459,276.5C 458.333,269.833 458.333,263.167 459,256.5C 459.374,254.509 460.207,252.842 461.5,251.5 Z"/></g>
<g><path style="opacity:0.394" fill="#ffffff" d="M 527.5,256.5 C 527.5,263.167 527.5,269.833 527.5,276.5C 526.545,274.717 525.878,272.717 525.5,270.5C 526.06,265.676 526.727,261.01 527.5,256.5 Z"/></g>
<g><path style="opacity:1" fill="#ffffff" d="M 443.5,265.5 C 441.811,266.304 440.145,267.304 438.5,268.5C 442.267,272.592 445.934,276.592 449.5,280.5C 447.603,281.805 445.269,282.471 442.5,282.5C 440.167,282.333 437.833,282.167 435.5,282C 434.619,281.292 433.953,280.458 433.5,279.5C 432.158,276.834 430.325,274.501 428,272.5C 426.991,270.975 426.491,269.308 426.5,267.5C 422.486,267.666 418.486,267.499 414.5,267C 413.692,266.692 413.025,266.192 412.5,265.5C 417.467,264.671 422.467,264.171 427.5,264C 437.953,264.067 441.62,259.234 438.5,249.5C 428.437,245.536 418.437,245.536 408.5,249.5C 407.594,252.436 406.928,255.436 406.5,258.5C 406.5,263.833 406.5,269.167 406.5,274.5C 405.734,276.684 405.067,279.018 404.5,281.5C 400.555,282.491 396.555,282.824 392.5,282.5C 391.79,270.882 393.957,259.882 399,249.5C 406.137,245.036 413.97,243.036 422.5,243.5C 429.512,243.834 436.512,244.334 443.5,245C 446.057,245.685 447.891,247.185 449,249.5C 449.729,253.997 449.229,258.33 447.5,262.5C 446.167,262.5 444.833,262.5 443.5,262.5C 443.5,263.5 443.5,264.5 443.5,265.5 Z"/></g>
<g><path style="opacity:0.91" fill="#ffffff" d="M 433.5,279.5 C 432.833,279.5 432.167,279.5 431.5,279.5C 428.334,277.166 425.667,274.333 423.5,271C 419.282,270.158 415.282,268.992 411.5,267.5C 411.5,266.167 411.5,264.833 411.5,263.5C 414.385,263.806 417.052,263.473 419.5,262.5C 423.514,262.666 427.514,262.499 431.5,262C 438.225,260.961 440.059,257.461 437,251.5C 435.556,249.845 433.722,249.178 431.5,249.5C 426.156,249.334 420.823,249.501 415.5,250C 412.473,250.545 410.14,252.045 408.5,254.5C 407.833,255.833 407.167,257.167 406.5,258.5C 406.928,255.436 407.594,252.436 408.5,249.5C 418.437,245.536 428.437,245.536 438.5,249.5C 441.62,259.234 437.953,264.067 427.5,264C 422.467,264.171 417.467,264.671 412.5,265.5C 413.025,266.192 413.692,266.692 414.5,267C 418.486,267.499 422.486,267.666 426.5,267.5C 426.491,269.308 426.991,270.975 428,272.5C 430.325,274.501 432.158,276.834 433.5,279.5 Z"/></g>
<g><path style="opacity:0.494" fill="#ffffff" d="M 419.5,262.5 C 417.052,263.473 414.385,263.806 411.5,263.5C 411.5,264.833 411.5,266.167 411.5,267.5C 409.017,265.689 409.017,263.855 411.5,262C 414.157,261.825 416.824,261.992 419.5,262.5 Z"/></g>
<g><path style="opacity:0.38" fill="#ffffff" d="M 431.5,249.5 C 433.722,249.178 435.556,249.845 437,251.5C 440.059,257.461 438.225,260.961 431.5,262C 427.514,262.499 423.514,262.666 419.5,262.5C 422.977,261.677 426.644,261.177 430.5,261C 439.393,257.864 439.727,254.031 431.5,249.5 Z"/></g>
<g><path style="opacity:0.145" fill="#ffffff" d="M 408.5,254.5 C 408.036,261.663 407.369,268.663 406.5,275.5C 406.5,275.167 406.5,274.833 406.5,274.5C 406.5,269.167 406.5,263.833 406.5,258.5C 407.167,257.167 407.833,255.833 408.5,254.5 Z"/></g>
<g><path style="opacity:0.843" fill="#ffffff" d="M 709.5,245.5 C 703.735,245.563 698.069,244.897 692.5,243.5C 690.833,243.833 689.167,244.167 687.5,244.5C 692.623,246.596 697.957,247.763 703.5,248C 706.814,251.14 707.981,254.974 707,259.5C 703.106,262.741 698.606,264.075 693.5,263.5C 694.833,262.833 696.167,262.167 697.5,261.5C 700.998,260.72 703.665,258.72 705.5,255.5C 704.872,253.742 703.872,252.242 702.5,251C 679.118,243.72 670.284,251.886 676,275.5C 680.249,277.405 684.749,278.405 689.5,278.5C 696.931,277.767 704.264,276.934 711.5,276C 715.682,279.355 715.016,281.688 709.5,283C 694.751,286.463 680.084,286.129 665.5,282C 662.404,279.971 660.738,277.138 660.5,273.5C 660.437,265.666 661.437,258 663.5,250.5C 664.706,246.635 667.373,244.635 671.5,244.5C 672.167,244.5 672.833,244.5 673.5,244.5C 673.5,245.833 673.5,247.167 673.5,248.5C 669.987,247.876 667.153,248.876 665,251.5C 662.037,260.525 661.87,269.525 664.5,278.5C 672.156,282.159 680.322,283.826 689,283.5C 696.177,282.879 703.343,282.213 710.5,281.5C 710.923,278.757 709.756,277.424 707,277.5C 697.696,279.567 688.196,280.067 678.5,279C 675.018,278.014 672.351,276.014 670.5,273C 671.697,267.226 672.531,261.393 673,255.5C 674.185,253.623 675.185,251.623 676,249.5C 677.6,248.134 679.433,247.134 681.5,246.5C 680.332,244.783 678.665,244.116 676.5,244.5C 676.918,243.778 677.584,243.278 678.5,243C 686.833,242.333 695.167,242.333 703.5,243C 705.723,243.566 707.723,244.4 709.5,245.5 Z"/></g>
<g><path style="opacity:1" fill="#ffffff" d="M 673.5,244.5 C 674.5,244.5 675.5,244.5 676.5,244.5C 678.665,244.116 680.332,244.783 681.5,246.5C 679.433,247.134 677.6,248.134 676,249.5C 675.185,251.623 674.185,253.623 673,255.5C 672.531,261.393 671.697,267.226 670.5,273C 672.351,276.014 675.018,278.014 678.5,279C 688.196,280.067 697.696,279.567 707,277.5C 709.756,277.424 710.923,278.757 710.5,281.5C 703.343,282.213 696.177,282.879 689,283.5C 680.322,283.826 672.156,282.159 664.5,278.5C 661.87,269.525 662.037,260.525 665,251.5C 667.153,248.876 669.987,247.876 673.5,248.5C 673.5,247.167 673.5,245.833 673.5,244.5 Z"/></g>
<g><path style="opacity:0.859" fill="#ffffff" d="M 326.5,259.5 C 325.759,266.978 327.093,273.978 330.5,280.5C 328.547,279.374 327.047,277.708 326,275.5C 325.183,269.984 325.349,264.65 326.5,259.5 Z"/></g>
<g><path style="opacity:1" fill="#ffffff" d="M 472.5,255.5 C 472.177,262.022 472.51,268.355 473.5,274.5C 474.882,275.801 476.548,276.634 478.5,277C 485.974,277.963 493.307,277.463 500.5,275.5C 499.884,277.417 498.55,278.584 496.5,279C 490.814,279.311 485.147,279.811 479.5,280.5C 475.812,280.241 472.978,278.574 471,275.5C 470.297,268.609 470.797,261.943 472.5,255.5 Z"/></g>
<g><path style="opacity:1" fill="#ffffff" d="M 369.5,273.5 C 372.017,271.923 372.017,270.09 369.5,268C 366.167,267.667 362.833,267.333 359.5,267C 359.043,266.586 358.709,266.086 358.5,265.5C 366.807,264.502 375.14,264.169 383.5,264.5C 383.663,266.857 383.497,269.19 383,271.5C 382.29,272.973 381.124,273.64 379.5,273.5C 379.5,275.167 379.5,276.833 379.5,278.5C 371.901,281.469 363.901,283.469 355.5,284.5C 351.054,283.972 346.721,282.972 342.5,281.5C 351.604,280.932 360.604,279.932 369.5,278.5C 369.5,276.833 369.5,275.167 369.5,273.5 Z"/></g>
<g><path style="opacity:0.388" fill="#ffffff" d="M 540.5,271.5 C 541.198,273.667 542.531,275.5 544.5,277C 551.464,278.83 558.464,278.997 565.5,277.5C 564.391,278.29 563.058,278.79 561.5,279C 556.845,279.499 552.179,279.666 547.5,279.5C 541.671,280 539.337,277.334 540.5,271.5 Z"/></g>
<g><path style="opacity:0.516" fill="#ffffff" d="M 431.5,279.5 C 432.167,279.5 432.833,279.5 433.5,279.5C 433.953,280.458 434.619,281.292 435.5,282C 437.833,282.167 440.167,282.333 442.5,282.5C 445.269,282.471 447.603,281.805 449.5,280.5C 451.625,281.368 451.791,282.368 450,283.5C 444.783,284.905 439.616,284.738 434.5,283C 433.29,281.961 432.29,280.794 431.5,279.5 Z"/></g>
<g><path style="opacity:0.973" fill="#ffffff" d="M 515.5,274.5 C 512.829,281.022 507.829,284.355 500.5,284.5C 491.833,284.5 483.167,284.5 474.5,284.5C 469.227,284.969 464.893,283.303 461.5,279.5C 467.478,280.66 473.478,281.827 479.5,283C 485.833,283.667 492.167,283.667 498.5,283C 504.301,280.35 509.968,277.517 515.5,274.5 Z"/></g>
<g><path style="opacity:0.443" fill="#ffffff" d="M 594.5,269.5 C 594.5,273.833 594.5,278.167 594.5,282.5C 598.833,282.5 603.167,282.5 607.5,282.5C 603.355,283.726 599.022,284.226 594.5,284C 593.176,279.067 593.176,274.234 594.5,269.5 Z"/></g>
<g><path style="opacity:0.32" fill="#ffffff" d="M 533.5,282.5 C 544.086,284.194 554.753,284.86 565.5,284.5C 561.833,285.167 558.167,285.833 554.5,286.5C 552.833,286.5 551.167,286.5 549.5,286.5C 543.971,285.959 538.638,284.626 533.5,282.5 Z"/></g>
<g><path style="opacity:0.051" fill="#ffffff" d="M 474.5,284.5 C 483.167,284.5 491.833,284.5 500.5,284.5C 498.167,285.167 495.833,285.833 493.5,286.5C 489.167,286.5 484.833,286.5 480.5,286.5C 478.5,285.833 476.5,285.167 474.5,284.5 Z"/></g>
</svg>
