<?xml version="1.0" encoding="UTF-8"?>
<!DOCTYPE svg PUBLIC "-//W3C//DTD SVG 1.1//EN" "http://www.w3.org/Graphics/SVG/1.1/DTD/svg11.dtd">
<svg xmlns="http://www.w3.org/2000/svg" version="1.1" width="225px" height="225px" style="shape-rendering:geometricPrecision; text-rendering:geometricPrecision; image-rendering:optimizeQuality; fill-rule:evenodd; clip-rule:evenodd" xmlns:xlink="http://www.w3.org/1999/xlink">
<g><path style="opacity:0.98" fill="#ffffff" d="M 115.5,57.5 C 110.729,57.5376 106.062,58.2043 101.5,59.5C 104.812,57.8926 108.312,56.5593 112,55.5C 113.302,56.0848 114.469,56.7515 115.5,57.5 Z"/></g>
<g><path style="opacity:1" fill="#ffffff" d="M 115.5,57.5 C 119.162,57.7234 122.495,58.7234 125.5,60.5C 123.167,60.5 120.833,60.5 118.5,60.5C 116.81,60.1436 115.81,59.1436 115.5,57.5 Z"/></g>
<g><path style="opacity:1" fill="#ffffff" d="M 115.5,57.5 C 115.81,59.1436 116.81,60.1436 118.5,60.5C 115.875,61.3253 113.375,60.6587 111,58.5C 108.799,59.9959 106.299,60.9959 103.5,61.5C 106.107,62.3184 108.774,62.8184 111.5,63C 106.588,63.222 101.921,64.0554 97.5,65.5C 94.7938,65.4249 92.1272,65.0916 89.5,64.5C 90.5,63.8333 91.5,63.1667 92.5,62.5C 95.2154,60.9281 98.2154,59.9281 101.5,59.5C 106.062,58.2043 110.729,57.5376 115.5,57.5 Z"/></g>
<g><path style="opacity:1" fill="#ffffff" d="M 118.5,60.5 C 120.833,60.5 123.167,60.5 125.5,60.5C 126.791,60.2627 127.791,60.596 128.5,61.5C 128.427,63.0269 129.094,64.0269 130.5,64.5C 119.679,65.4946 108.679,65.8279 97.5,65.5C 101.921,64.0554 106.588,63.222 111.5,63C 108.774,62.8184 106.107,62.3184 103.5,61.5C 106.299,60.9959 108.799,59.9959 111,58.5C 113.375,60.6587 115.875,61.3253 118.5,60.5 Z"/></g>
<g><path style="opacity:1" fill="#ffffff" d="M 128.5,61.5 C 133.072,62.3876 137.405,63.7209 141.5,65.5C 137.802,65.4476 134.135,65.1143 130.5,64.5C 129.094,64.0269 128.427,63.0269 128.5,61.5 Z"/></g>
<g><path style="opacity:1" fill="#ffffff" d="M 89.5,64.5 C 92.1272,65.0916 94.7938,65.4249 97.5,65.5C 108.679,65.8279 119.679,65.4946 130.5,64.5C 134.135,65.1143 137.802,65.4476 141.5,65.5C 142.99,67.2798 144.99,67.9465 147.5,67.5C 147.5,67.8333 147.5,68.1667 147.5,68.5C 142.65,67.9326 137.65,67.9326 132.5,68.5C 118.431,67.1699 104.265,67.1699 90,68.5C 88.2458,66.75 86.0792,66.0833 83.5,66.5C 85.2143,65.2616 87.2143,64.595 89.5,64.5 Z"/></g>
<g><path style="opacity:1" fill="#ffffff" d="M 92.5,62.5 C 91.5,63.1667 90.5,63.8333 89.5,64.5C 87.2143,64.595 85.2143,65.2616 83.5,66.5C 81.0347,66.767 78.7014,67.4336 76.5,68.5C 74.5648,69.1495 72.5648,69.4828 70.5,69.5C 77.4985,66.3906 84.8318,64.0572 92.5,62.5 Z"/></g>
<g><path style="opacity:0.953" fill="#ffffff" d="M 141.5,65.5 C 143.786,65.595 145.786,66.2616 147.5,67.5C 144.99,67.9465 142.99,67.2798 141.5,65.5 Z"/></g>
<g><path style="opacity:1" fill="#ffffff" d="M 83.5,66.5 C 86.0792,66.0833 88.2458,66.75 90,68.5C 104.265,67.1699 118.431,67.1699 132.5,68.5C 120.167,68.5 107.833,68.5 95.5,68.5C 89.0166,69.6756 82.6833,69.6756 76.5,68.5C 78.7014,67.4336 81.0347,66.767 83.5,66.5 Z"/></g>
<g><path style="opacity:1" fill="#ffffff" d="M 147.5,68.5 C 149.593,69.0447 151.593,69.878 153.5,71C 152.944,71.3826 152.611,71.8826 152.5,72.5C 149.119,72.5405 145.786,72.2071 142.5,71.5C 140.035,70.2031 137.702,70.5365 135.5,72.5C 134.259,71.9628 133.092,71.2961 132,70.5C 130.832,71.5089 129.665,72.5089 128.5,73.5C 127.893,73.3764 127.56,73.0431 127.5,72.5C 117.549,70.6863 107.215,69.8529 96.5,70C 95.944,69.6174 95.6107,69.1174 95.5,68.5C 107.833,68.5 120.167,68.5 132.5,68.5C 137.65,67.9326 142.65,67.9326 147.5,68.5 Z"/></g>
<g><path style="opacity:1" fill="#ffffff" d="M 76.5,68.5 C 82.6833,69.6756 89.0166,69.6756 95.5,68.5C 95.6107,69.1174 95.944,69.6174 96.5,70C 107.215,69.8529 117.549,70.6863 127.5,72.5C 110.258,72.9457 93.2583,72.9457 76.5,72.5C 75.1667,72.5 73.8333,72.5 72.5,72.5C 72.1667,72.5 71.8333,72.5 71.5,72.5C 71.4431,71.391 71.1098,70.391 70.5,69.5C 72.5648,69.4828 74.5648,69.1495 76.5,68.5 Z"/></g>
<g><path style="opacity:1" fill="#ffffff" d="M 70.5,69.5 C 71.1098,70.391 71.4431,71.391 71.5,72.5C 69.5165,72.6168 67.8498,71.9501 66.5,70.5C 67.6888,69.5713 69.0222,69.238 70.5,69.5 Z"/></g>
<g><path style="opacity:1" fill="#ffffff" d="M 147.5,68.5 C 147.5,68.1667 147.5,67.8333 147.5,67.5C 151.095,67.9758 154.428,69.1425 157.5,71C 155.975,72.0086 154.308,72.5086 152.5,72.5C 152.611,71.8826 152.944,71.3826 153.5,71C 151.593,69.878 149.593,69.0447 147.5,68.5 Z"/></g>
<g><path style="opacity:1" fill="#ffffff" d="M 72.5,72.5 C 73.8333,72.5 75.1667,72.5 76.5,72.5C 78.0725,73.6873 79.7392,74.6873 81.5,75.5C 78.145,75.3104 75.145,74.3104 72.5,72.5 Z"/></g>
<g><path style="opacity:1" fill="#ffffff" d="M 142.5,71.5 C 144.129,73.1959 143.796,74.1959 141.5,74.5C 140.054,73.3871 138.387,73.2204 136.5,74C 135.226,75.2208 133.726,76.0541 132,76.5C 117.87,75.5253 103.703,75.192 89.5,75.5C 89.5,76.8333 89.5,78.1667 89.5,79.5C 89.1667,79.5 88.8333,79.5 88.5,79.5C 88.67,78.1779 88.3366,77.0113 87.5,76C 85.5273,75.5045 83.5273,75.3379 81.5,75.5C 79.7392,74.6873 78.0725,73.6873 76.5,72.5C 93.2583,72.9457 110.258,72.9457 127.5,72.5C 127.56,73.0431 127.893,73.3764 128.5,73.5C 129.665,72.5089 130.832,71.5089 132,70.5C 133.092,71.2961 134.259,71.9628 135.5,72.5C 137.702,70.5365 140.035,70.2031 142.5,71.5 Z"/></g>
<g><path style="opacity:1" fill="#ffffff" d="M 142.5,71.5 C 145.786,72.2071 149.119,72.5405 152.5,72.5C 150.11,74.0198 147.443,75.0198 144.5,75.5C 144.5,77.8333 144.5,80.1667 144.5,82.5C 144.5,83.8333 144.5,85.1667 144.5,86.5C 143.9,85.0998 142.9,84.0998 141.5,83.5C 141.5,82.8333 141.5,82.1667 141.5,81.5C 142.451,80.0813 142.784,78.4147 142.5,76.5C 140.901,76.2322 139.568,76.5655 138.5,77.5C 137.833,77.5 137.167,77.5 136.5,77.5C 137.344,75.2407 139.011,74.2407 141.5,74.5C 143.796,74.1959 144.129,73.1959 142.5,71.5 Z"/></g>
<g><path style="opacity:1" fill="#ffffff" d="M 141.5,74.5 C 139.011,74.2407 137.344,75.2407 136.5,77.5C 136.167,77.5 135.833,77.5 135.5,77.5C 133.738,77.3573 132.071,77.6906 130.5,78.5C 129.522,78.0233 128.689,77.3567 128,76.5C 123.953,78.9958 119.453,79.9958 114.5,79.5C 112.8,79.6261 111.3,80.2927 110,81.5C 109,80.8333 108,80.1667 107,79.5C 105.155,80.7558 103.155,81.7558 101,82.5C 98.2458,80.2426 95.2458,79.9093 92,81.5C 90.6244,81.3158 89.7911,80.6491 89.5,79.5C 89.5,78.1667 89.5,76.8333 89.5,75.5C 103.703,75.192 117.87,75.5253 132,76.5C 133.726,76.0541 135.226,75.2208 136.5,74C 138.387,73.2204 140.054,73.3871 141.5,74.5 Z"/></g>
<g><path style="opacity:0.376" fill="#ffffff" d="M 138.5,77.5 C 139.568,76.5655 140.901,76.2322 142.5,76.5C 142.784,78.4147 142.451,80.0813 141.5,81.5C 141.5,80.1667 141.5,78.8333 141.5,77.5C 140.5,77.5 139.5,77.5 138.5,77.5 Z"/></g>
<g><path style="opacity:1" fill="#ffffff" d="M 135.5,77.5 C 135.5,80.1667 135.5,82.8333 135.5,85.5C 135.167,85.5 134.833,85.5 134.5,85.5C 134.5,85.1667 134.5,84.8333 134.5,84.5C 134.631,83.7611 134.464,83.0944 134,82.5C 130.743,82.1565 127.409,82.1565 124,82.5C 121.176,81.9461 118.343,81.4461 115.5,81C 114.944,80.6174 114.611,80.1174 114.5,79.5C 119.453,79.9958 123.953,78.9958 128,76.5C 128.689,77.3567 129.522,78.0233 130.5,78.5C 132.071,77.6906 133.738,77.3573 135.5,77.5 Z"/></g>
<g><path style="opacity:1" fill="#ffffff" d="M 88.5,79.5 C 88.8333,79.5 89.1667,79.5 89.5,79.5C 89.7911,80.6491 90.6244,81.3158 92,81.5C 95.2458,79.9093 98.2458,80.2426 101,82.5C 103.155,81.7558 105.155,80.7558 107,79.5C 108,80.1667 109,80.8333 110,81.5C 111.3,80.2927 112.8,79.6261 114.5,79.5C 114.611,80.1174 114.944,80.6174 115.5,81C 118.343,81.4461 121.176,81.9461 124,82.5C 127.409,82.1565 130.743,82.1565 134,82.5C 134.464,83.0944 134.631,83.7611 134.5,84.5C 133.167,84.5 131.833,84.5 130.5,84.5C 128.217,83.9707 125.883,83.6374 123.5,83.5C 115.66,85.0647 107.66,86.0647 99.5,86.5C 96.7522,82.0486 93.2522,81.3819 89,84.5C 88.5065,82.8659 88.3398,81.1992 88.5,79.5 Z"/></g>
<g><path style="opacity:0.914" fill="#ffffff" d="M 135.5,77.5 C 135.833,77.5 136.167,77.5 136.5,77.5C 137.167,77.5 137.833,77.5 138.5,77.5C 137.065,80.0283 136.065,82.695 135.5,85.5C 135.5,82.8333 135.5,80.1667 135.5,77.5 Z"/></g>
<g><path style="opacity:0.008" fill="#ffffff" d="M 138.5,83.5 C 139.833,84.1667 139.833,84.1667 138.5,83.5 Z"/></g>
<g><path style="opacity:0.855" fill="#ffffff" d="M 88.5,85.5 C 91.1522,85.4095 93.4855,86.0762 95.5,87.5C 92.8478,87.5905 90.5145,86.9238 88.5,85.5 Z"/></g>
<g><path style="opacity:1" fill="#ffffff" d="M 81.5,75.5 C 83.5273,75.3379 85.5273,75.5045 87.5,76C 88.3366,77.0113 88.67,78.1779 88.5,79.5C 88.3398,81.1992 88.5065,82.8659 89,84.5C 93.2522,81.3819 96.7522,82.0486 99.5,86.5C 101.219,87.0221 102.552,88.0221 103.5,89.5C 103.167,89.5 102.833,89.5 102.5,89.5C 99.9327,89.2785 97.5994,88.6118 95.5,87.5C 93.4855,86.0762 91.1522,85.4095 88.5,85.5C 86.9201,83.2829 85.9201,80.6163 85.5,77.5C 83.9745,77.0057 82.6412,76.339 81.5,75.5 Z"/></g>
<g><path style="opacity:1" fill="#ffffff" d="M 130.5,84.5 C 126.097,85.6522 122.097,87.6522 118.5,90.5C 115.23,92.1604 111.897,92.4938 108.5,91.5C 107.22,90.0687 105.553,89.4021 103.5,89.5C 102.552,88.0221 101.219,87.0221 99.5,86.5C 107.66,86.0647 115.66,85.0647 123.5,83.5C 125.883,83.6374 128.217,83.9707 130.5,84.5 Z"/></g>
<g><path style="opacity:1" fill="#ffffff" d="M 130.5,84.5 C 131.833,84.5 133.167,84.5 134.5,84.5C 134.5,84.8333 134.5,85.1667 134.5,85.5C 134.5,85.8333 134.5,86.1667 134.5,86.5C 133.209,86.2627 132.209,86.596 131.5,87.5C 127.12,88.2934 122.786,89.2934 118.5,90.5C 122.097,87.6522 126.097,85.6522 130.5,84.5 Z"/></g>
<g><path style="opacity:0.004" fill="#ffffff" d="M 93.5,88.5 C 94.8333,89.1667 94.8333,89.1667 93.5,88.5 Z"/></g>
<g><path style="opacity:0.031" fill="#ffffff" d="M 95.5,89.5 C 96.8333,90.1667 96.8333,90.1667 95.5,89.5 Z"/></g>
<g><path style="opacity:0.82" fill="#ffffff" d="M 102.5,89.5 C 102.833,89.5 103.167,89.5 103.5,89.5C 105.553,89.4021 107.22,90.0687 108.5,91.5C 107.504,91.4142 106.671,91.7476 106,92.5C 105.015,91.1859 103.848,90.1859 102.5,89.5 Z"/></g>
<g><path style="opacity:1" fill="#ffffff" d="M 94.5,91.5 C 93.1667,91.5 92.5,92.1667 92.5,93.5C 89.1991,93.2078 87.1991,91.5411 86.5,88.5C 89.5418,88.7329 92.2084,89.7329 94.5,91.5 Z"/></g>
<g><path style="opacity:0.02" fill="#ffffff" d="M 97.5,90.5 C 98.8333,91.1667 98.8333,91.1667 97.5,90.5 Z"/></g>
<g><path style="opacity:0.933" fill="#ffffff" d="M 134.5,86.5 C 135.693,86.9704 136.36,87.9704 136.5,89.5C 136.36,91.0296 135.693,92.0296 134.5,92.5C 135.234,91.2921 135.567,89.9587 135.5,88.5C 131.214,89.7066 126.88,90.7066 122.5,91.5C 125.5,90.1667 128.5,88.8333 131.5,87.5C 132.791,87.7373 133.791,87.404 134.5,86.5 Z"/></g>
<g><path style="opacity:0.694" fill="#ffffff" d="M 141.5,81.5 C 141.5,82.1667 141.5,82.8333 141.5,83.5C 141.5,87.5 141.5,91.5 141.5,95.5C 142.5,95.5 143.5,95.5 144.5,95.5C 144.5,92.5 144.5,89.5 144.5,86.5C 144.5,85.1667 144.5,83.8333 144.5,82.5C 145.487,87.3054 145.821,92.3054 145.5,97.5C 143.833,97.5 142.167,97.5 140.5,97.5C 140.179,91.9738 140.512,86.6405 141.5,81.5 Z"/></g>
<g><path style="opacity:0.012" fill="#ffffff" d="M 105.5,93.5 C 106.833,94.1667 106.833,94.1667 105.5,93.5 Z"/></g>
<g><path style="opacity:0.016" fill="#ffffff" d="M 109.5,93.5 C 110.833,94.1667 110.833,94.1667 109.5,93.5 Z"/></g>
<g><path style="opacity:1" fill="#ffffff" d="M 121.5,91.5 C 118.511,93.6611 115.178,95.3277 111.5,96.5C 111.369,95.6236 111.702,94.9569 112.5,94.5C 115.45,93.2946 118.45,92.2946 121.5,91.5 Z"/></g>
<g><path style="opacity:1" fill="#ffffff" d="M 141.5,83.5 C 142.9,84.0998 143.9,85.0998 144.5,86.5C 144.5,89.5 144.5,92.5 144.5,95.5C 143.5,95.5 142.5,95.5 141.5,95.5C 141.5,91.5 141.5,87.5 141.5,83.5 Z"/></g>
<g><path style="opacity:0.027" fill="#ffffff" d="M 93.5,94.5 C 92.8333,95.1667 92.8333,95.1667 93.5,94.5 Z"/></g>
<g><path style="opacity:1" fill="#ffffff" d="M 94.5,91.5 C 95.5,91.5 96.5,91.5 97.5,91.5C 99.8902,93.0198 102.557,94.0198 105.5,94.5C 107.214,95.7384 109.214,96.405 111.5,96.5C 110.391,97.29 109.058,97.79 107.5,98C 108.056,98.3826 108.389,98.8826 108.5,99.5C 106.883,98.962 105.216,98.6287 103.5,98.5C 100.47,96.5968 97.1368,95.2635 93.5,94.5C 93.5,93.8333 93.1667,93.5 92.5,93.5C 92.5,92.1667 93.1667,91.5 94.5,91.5 Z"/></g>
<g><path style="opacity:1" fill="#ffffff" d="M 134.5,92.5 C 134.5,92.8333 134.5,93.1667 134.5,93.5C 127.987,95.0871 121.654,97.2538 115.5,100C 112.961,100.796 110.628,100.629 108.5,99.5C 112.987,99.6925 116.987,98.3592 120.5,95.5C 125.054,93.8638 129.721,92.8638 134.5,92.5 Z"/></g>
<g><path style="opacity:1" fill="#ffffff" d="M 134.5,92.5 C 129.721,92.8638 125.054,93.8638 120.5,95.5C 116.987,98.3592 112.987,99.6925 108.5,99.5C 108.389,98.8826 108.056,98.3826 107.5,98C 109.058,97.79 110.391,97.29 111.5,96.5C 115.178,95.3277 118.511,93.6611 121.5,91.5C 121.833,91.5 122.167,91.5 122.5,91.5C 126.88,90.7066 131.214,89.7066 135.5,88.5C 135.567,89.9587 135.234,91.2921 134.5,92.5 Z"/></g>
<g><path style="opacity:0.624" fill="#ffffff" d="M 134.5,93.5 C 135.552,93.3505 136.552,93.5172 137.5,94C 137.12,96.3258 136.12,98.1591 134.5,99.5C 135.234,98.2921 135.567,96.9587 135.5,95.5C 134.5,95.5 133.5,95.5 132.5,95.5C 133.167,94.8333 133.833,94.1667 134.5,93.5 Z"/></g>
<g><path style="opacity:1" fill="#ffffff" d="M 100.5,101.5 C 99.7611,101.369 99.0944,101.536 98.5,102C 99.3805,102.708 100.047,103.542 100.5,104.5C 98.0722,102.957 95.4056,101.957 92.5,101.5C 90.6455,100.31 88.8121,98.9771 87,97.5C 86.4372,96.2752 86.7705,95.2752 88,94.5C 90.3826,96.9547 93.0493,97.9547 96,97.5C 97.2499,99.1935 98.7499,100.527 100.5,101.5 Z"/></g>
<g><path style="opacity:0.008" fill="#ffffff" d="M 103.5,98.5 C 102.749,99.5735 101.749,99.7401 100.5,99C 101.448,98.5172 102.448,98.3505 103.5,98.5 Z"/></g>
<g><path style="opacity:0.004" fill="#ffffff" d="M 137.5,98.5 C 138.833,99.1667 138.833,99.1667 137.5,98.5 Z"/></g>
<g><path style="opacity:0.004" fill="#ffffff" d="M 104.5,99.5 C 105.833,100.167 105.833,100.167 104.5,99.5 Z"/></g>
<g><path style="opacity:1" fill="#ffffff" d="M 132.5,95.5 C 133.5,95.5 134.5,95.5 135.5,95.5C 135.567,96.9587 135.234,98.2921 134.5,99.5C 131.968,100.596 129.635,101.929 127.5,103.5C 126.508,103.328 125.842,103.662 125.5,104.5C 122.167,105.5 118.833,106.5 115.5,107.5C 112.833,107.5 110.167,107.5 107.5,107.5C 107.5,106.167 108.167,105.5 109.5,105.5C 111.048,105.179 111.715,104.179 111.5,102.5C 118.426,99.969 125.426,97.6357 132.5,95.5 Z"/></g>
<g><path style="opacity:0.073" fill="#ffffff" d="M 89.5,103.5 C 88.5084,103.328 87.8417,103.662 87.5,104.5C 86.8333,104.5 86.5,104.833 86.5,105.5C 85.478,104.108 85.8113,102.775 87.5,101.5C 88.5223,101.855 89.189,102.522 89.5,103.5 Z"/></g>
<g><path style="opacity:0.608" fill="#ffffff" d="M 134.5,101.5 C 135.251,100.427 136.251,100.26 137.5,101C 137.12,103.326 136.12,105.159 134.5,106.5C 135.72,104.716 135.72,103.05 134.5,101.5 Z"/></g>
<g><path style="opacity:0.008" fill="#ffffff" d="M 109.5,103.5 C 110.833,104.167 110.833,104.167 109.5,103.5 Z"/></g>
<g><path style="opacity:1" fill="#ffffff" d="M 134.5,101.5 C 135.72,103.05 135.72,104.716 134.5,106.5C 134.5,106.833 134.5,107.167 134.5,107.5C 133.833,107.5 133.167,107.5 132.5,107.5C 130.194,107.993 127.861,108.326 125.5,108.5C 125.5,107.5 125.5,106.5 125.5,105.5C 125.5,105.167 125.5,104.833 125.5,104.5C 126.492,104.672 127.158,104.338 127.5,103.5C 129.921,103.122 132.254,102.455 134.5,101.5 Z"/></g>
<g><path style="opacity:0.008" fill="#ffffff" d="M 86.5,105.5 C 86.8333,105.5 87.1667,105.5 87.5,105.5C 87.3147,106.17 86.9813,106.17 86.5,105.5 Z"/></g>
<g><path style="opacity:1" fill="#ffffff" d="M 100.5,101.5 C 103.594,102.213 106.594,103.213 109.5,104.5C 109.5,104.833 109.5,105.167 109.5,105.5C 108.167,105.5 107.5,106.167 107.5,107.5C 105.046,106.773 102.713,105.773 100.5,104.5C 100.047,103.542 99.3805,102.708 98.5,102C 99.0944,101.536 99.7611,101.369 100.5,101.5 Z"/></g>
<g><path style="opacity:1" fill="#ffffff" d="M 92.5,101.5 C 91.4376,102.575 91.4376,103.575 92.5,104.5C 95.7235,105.941 98.7235,107.608 101.5,109.5C 99.0065,109.131 98.3398,109.797 99.5,111.5C 97.3131,110.242 94.9798,109.242 92.5,108.5C 91.0351,107.263 89.3684,106.263 87.5,105.5C 87.5,105.167 87.5,104.833 87.5,104.5C 87.8417,103.662 88.5084,103.328 89.5,103.5C 90.2223,102.449 91.2223,101.782 92.5,101.5 Z"/></g>
<g><path style="opacity:1" fill="#ffffff" d="M 107.5,107.5 C 110.167,107.5 112.833,107.5 115.5,107.5C 112.833,110.167 110.167,110.167 107.5,107.5 Z"/></g>
<g><path style="opacity:0.018" fill="#ffffff" d="M 92.5,108.5 C 92.9528,109.458 93.6195,110.292 94.5,111C 93.9056,111.464 93.2389,111.631 92.5,111.5C 92.0472,110.542 91.3805,109.708 90.5,109C 91.0944,108.536 91.7611,108.369 92.5,108.5 Z"/></g>
<g><path style="opacity:1" fill="#ffffff" d="M 125.5,105.5 C 125.5,106.5 125.5,107.5 125.5,108.5C 127.861,108.326 130.194,107.993 132.5,107.5C 132.5,107.833 132.5,108.167 132.5,108.5C 131.508,108.328 130.842,108.662 130.5,109.5C 129.508,109.328 128.842,109.662 128.5,110.5C 127.508,110.328 126.842,110.662 126.5,111.5C 125.833,111.5 125.167,111.5 124.5,111.5C 124.582,109.748 123.749,108.748 122,108.5C 120.234,109.233 118.401,109.567 116.5,109.5C 119.314,107.93 122.314,106.597 125.5,105.5 Z"/></g>
<g><path style="opacity:0.698" fill="#ffffff" d="M 134.5,107.5 C 135.693,107.97 136.36,108.97 136.5,110.5C 136.36,112.03 135.693,113.03 134.5,113.5C 135.234,112.292 135.567,110.959 135.5,109.5C 134.5,109.5 133.5,109.5 132.5,109.5C 132.5,109.167 132.5,108.833 132.5,108.5C 133.492,108.672 134.158,108.338 134.5,107.5 Z"/></g>
<g><path style="opacity:1" fill="#ffffff" d="M 116.5,109.5 C 114.862,110.832 113.196,112.166 111.5,113.5C 111.5,112.5 111.5,111.5 111.5,110.5C 113.216,110.371 114.883,110.038 116.5,109.5 Z"/></g>
<g><path style="opacity:1" fill="#ffffff" d="M 124.5,111.5 C 124.5,111.833 124.5,112.167 124.5,112.5C 123.508,112.328 122.842,112.662 122.5,113.5C 121.508,113.328 120.842,113.662 120.5,114.5C 119.508,114.328 118.842,114.662 118.5,115.5C 117.508,115.328 116.842,115.662 116.5,116.5C 115.833,116.5 115.167,116.5 114.5,116.5C 113.5,116.5 112.5,116.5 111.5,116.5C 111.5,115.5 111.5,114.5 111.5,113.5C 113.196,112.166 114.862,110.832 116.5,109.5C 118.401,109.567 120.234,109.233 122,108.5C 123.749,108.748 124.582,109.748 124.5,111.5 Z"/></g>
<g><path style="opacity:1" fill="#ffffff" d="M 130.5,109.5 C 131.167,109.5 131.833,109.5 132.5,109.5C 133.5,109.5 134.5,109.5 135.5,109.5C 135.567,110.959 135.234,112.292 134.5,113.5C 132.337,115.083 130.004,116.416 127.5,117.5C 125.584,115.884 124.084,116.218 123,118.5C 122.5,118 122,117.5 121.5,117C 123.692,115.933 125.358,114.433 126.5,112.5C 126.5,112.167 126.5,111.833 126.5,111.5C 127.492,111.672 128.158,111.338 128.5,110.5C 129.492,110.672 130.158,110.338 130.5,109.5 Z"/></g>
<g><path style="opacity:1" fill="#ffffff" d="M 101.5,109.5 C 104.794,111.04 108.128,112.373 111.5,113.5C 111.5,114.5 111.5,115.5 111.5,116.5C 112.5,116.5 113.5,116.5 114.5,116.5C 114.5,116.833 114.5,117.167 114.5,117.5C 113.417,117.539 112.417,117.873 111.5,118.5C 107.437,116.14 103.437,113.807 99.5,111.5C 98.3398,109.797 99.0065,109.131 101.5,109.5 Z"/></g>
<g><path style="opacity:1" fill="#ffffff" d="M 124.5,112.5 C 125.167,112.5 125.833,112.5 126.5,112.5C 125.358,114.433 123.692,115.933 121.5,117C 122,117.5 122.5,118 123,118.5C 124.084,116.218 125.584,115.884 127.5,117.5C 124.76,119.56 121.76,121.226 118.5,122.5C 118.751,120.83 119.418,119.33 120.5,118C 119.207,117.51 117.873,117.343 116.5,117.5C 116.5,117.167 116.5,116.833 116.5,116.5C 117.492,116.672 118.158,116.338 118.5,115.5C 119.492,115.672 120.158,115.338 120.5,114.5C 121.492,114.672 122.158,114.338 122.5,113.5C 123.492,113.672 124.158,113.338 124.5,112.5 Z"/></g>
<g><path style="opacity:1" fill="#ffffff" d="M 92.5,111.5 C 96.5,114.167 100.5,116.833 104.5,119.5C 102.302,119.409 101.969,120.075 103.5,121.5C 97.1081,118.645 91.4414,114.812 86.5,110C 86.8333,109.5 87.1667,109 87.5,108.5C 88.9397,109.952 90.6064,110.952 92.5,111.5 Z"/></g>
<g><path style="opacity:1" fill="#ffffff" d="M 114.5,117.5 C 115.167,117.5 115.833,117.5 116.5,117.5C 117.873,117.343 119.207,117.51 120.5,118C 119.418,119.33 118.751,120.83 118.5,122.5C 116.396,122.799 114.396,122.466 112.5,121.5C 112.863,120.817 113.196,120.15 113.5,119.5C 113.833,118.833 114.167,118.167 114.5,117.5 Z"/></g>
<g><path style="opacity:1" fill="#ffffff" d="M 104.5,119.5 C 106.84,120.086 109.007,121.086 111,122.5C 111.236,120.881 112.069,119.881 113.5,119.5C 113.196,120.15 112.863,120.817 112.5,121.5C 114.396,122.466 116.396,122.799 118.5,122.5C 115.843,125.832 112.51,126.832 108.5,125.5C 106.833,124.167 105.167,122.833 103.5,121.5C 101.969,120.075 102.302,119.409 104.5,119.5 Z"/></g>
<g><path style="opacity:0.008" fill="#ffffff" d="M 108.5,125.5 C 107.833,126.167 107.833,126.167 108.5,125.5 Z"/></g>
<g><path style="opacity:0.84" fill="#ffffff" d="M 122.5,140.5 C 122.851,137.959 122.518,136.292 121.5,135.5C 115.256,134.542 108.923,134.209 102.5,134.5C 102.167,134.5 101.833,134.5 101.5,134.5C 101.842,133.662 102.508,133.328 103.5,133.5C 110.096,132.669 116.262,132.335 122,132.5C 123.743,135.156 123.909,137.822 122.5,140.5 Z"/></g>
<g><path style="opacity:0.825" fill="#ffffff" d="M 149.5,140.5 C 149.167,140.5 148.833,140.5 148.5,140.5C 148.5,138.5 148.5,136.5 148.5,134.5C 141.833,134.5 135.167,134.5 128.5,134.5C 128.5,134.167 128.5,133.833 128.5,133.5C 135.117,132.411 141.783,132.244 148.5,133C 149.435,135.381 149.768,137.881 149.5,140.5 Z"/></g>
<g><path style="opacity:1" fill="#ffffff" d="M 128.5,134.5 C 135.167,134.5 141.833,134.5 148.5,134.5C 148.5,136.5 148.5,138.5 148.5,140.5C 144.167,140.5 139.833,140.5 135.5,140.5C 135.611,139.883 135.944,139.383 136.5,139C 140.152,138.501 143.818,138.335 147.5,138.5C 147.5,137.5 147.5,136.5 147.5,135.5C 141.167,135.5 134.833,135.5 128.5,135.5C 128.5,138.5 128.5,141.5 128.5,144.5C 128.5,151.167 128.5,157.833 128.5,164.5C 134.645,165.49 140.978,165.823 147.5,165.5C 147.077,163.219 147.744,161.552 149.5,160.5C 149.5,162.5 149.5,164.5 149.5,166.5C 142.167,166.5 134.833,166.5 127.5,166.5C 127.172,155.654 127.506,144.987 128.5,134.5 Z"/></g>
<g><path style="opacity:1" fill="#ffffff" d="M 135.5,140.5 C 134.539,142.265 134.205,144.265 134.5,146.5C 138.5,147.167 142.5,147.833 146.5,148.5C 141.786,148.827 137.12,148.493 132.5,147.5C 131.717,145.712 130.384,144.712 128.5,144.5C 128.5,141.5 128.5,138.5 128.5,135.5C 134.833,135.5 141.167,135.5 147.5,135.5C 147.5,136.5 147.5,137.5 147.5,138.5C 143.818,138.335 140.152,138.501 136.5,139C 135.944,139.383 135.611,139.883 135.5,140.5 Z"/></g>
<g><path style="opacity:1" fill="#ffffff" d="M 122.5,140.5 C 117.833,140.5 113.167,140.5 108.5,140.5C 108.5,142.5 108.5,144.5 108.5,146.5C 107.532,144.393 107.198,142.059 107.5,139.5C 112.167,139.5 116.833,139.5 121.5,139.5C 121.5,138.167 121.5,136.833 121.5,135.5C 122.518,136.292 122.851,137.959 122.5,140.5 Z"/></g>
<g><path style="opacity:1" fill="#ffffff" d="M 95.5,142.5 C 95.5,143.5 95.5,144.5 95.5,145.5C 92.248,145.71 89.248,145.044 86.5,143.5C 85.5,142.833 84.5,142.167 83.5,141.5C 82.5039,140.335 81.1705,139.668 79.5,139.5C 76.874,139.622 74.874,140.622 73.5,142.5C 73.1667,143.5 72.5,144.167 71.5,144.5C 71.5,143.167 71.5,141.833 71.5,140.5C 70.5,140.5 69.5,140.5 68.5,140.5C 68.33,139.178 68.6634,138.011 69.5,137C 75.8404,135.527 82.1737,135.36 88.5,136.5C 90.5782,138.92 92.9115,140.92 95.5,142.5 Z"/></g>
<g><path style="opacity:0.122" fill="#ffffff" d="M 135.5,140.5 C 139.833,140.5 144.167,140.5 148.5,140.5C 148.833,140.5 149.167,140.5 149.5,140.5C 145.03,141.486 140.363,141.819 135.5,141.5C 135.5,143.167 135.5,144.833 135.5,146.5C 135.167,146.5 134.833,146.5 134.5,146.5C 134.205,144.265 134.539,142.265 135.5,140.5 Z"/></g>
<g><path style="opacity:1" fill="#ffffff" d="M 95.5,142.5 C 92.9115,140.92 90.5782,138.92 88.5,136.5C 82.1737,135.36 75.8404,135.527 69.5,137C 68.6634,138.011 68.33,139.178 68.5,140.5C 69.5,140.5 70.5,140.5 71.5,140.5C 71.5,141.833 71.5,143.167 71.5,144.5C 71.7373,145.791 71.404,146.791 70.5,147.5C 69.8333,149.167 69.1667,150.833 68.5,152.5C 67.701,149.57 67.3677,146.57 67.5,143.5C 66.5,143.5 65.5,143.5 64.5,143.5C 63.2888,151.3 64.9555,158.3 69.5,164.5C 67.629,164.141 66.129,163.141 65,161.5C 59.5783,152.035 60.745,143.535 68.5,136C 76.7467,131.103 84.7467,131.436 92.5,137C 93.7577,138.741 94.7577,140.574 95.5,142.5 Z"/></g>
<g><path style="opacity:1" fill="#ffffff" d="M 83.5,141.5 C 80.1142,140.496 76.7808,140.83 73.5,142.5C 74.874,140.622 76.874,139.622 79.5,139.5C 81.1705,139.668 82.5039,140.335 83.5,141.5 Z"/></g>
<g><path style="opacity:1" fill="#ffffff" d="M 101.5,134.5 C 101.833,134.5 102.167,134.5 102.5,134.5C 102.5,144.833 102.5,155.167 102.5,165.5C 104.167,165.5 105.833,165.5 107.5,165.5C 107.185,161.629 107.518,157.962 108.5,154.5C 108.5,158.5 108.5,162.5 108.5,166.5C 106.167,166.5 103.833,166.5 101.5,166.5C 101.5,155.833 101.5,145.167 101.5,134.5 Z"/></g>
<g><path style="opacity:1" fill="#ffffff" d="M 102.5,134.5 C 108.923,134.209 115.256,134.542 121.5,135.5C 121.5,136.833 121.5,138.167 121.5,139.5C 116.833,139.5 112.167,139.5 107.5,139.5C 107.198,142.059 107.532,144.393 108.5,146.5C 112.298,147.483 116.298,147.817 120.5,147.5C 120.5,149.5 120.5,151.5 120.5,153.5C 116.298,153.183 112.298,153.517 108.5,154.5C 107.518,157.962 107.185,161.629 107.5,165.5C 105.833,165.5 104.167,165.5 102.5,165.5C 102.5,155.167 102.5,144.833 102.5,134.5 Z"/></g>
<g><path style="opacity:1" fill="#ffffff" d="M 161.5,133.5 C 161.5,144.5 161.5,155.5 161.5,166.5C 159.167,166.5 156.833,166.5 154.5,166.5C 154.5,155.5 154.5,144.5 154.5,133.5C 156.465,132.504 158.798,132.504 161.5,133.5 Z"/></g>
<g><path style="opacity:0.953" fill="#ffffff" d="M 95.5,142.5 C 96.3382,142.842 96.6716,143.508 96.5,144.5C 96.6716,145.492 96.3382,146.158 95.5,146.5C 93.2075,146.244 91.0408,146.577 89,147.5C 87.9054,146.307 87.072,144.973 86.5,143.5C 89.248,145.044 92.248,145.71 95.5,145.5C 95.5,144.5 95.5,143.5 95.5,142.5 Z"/></g>
<g><path style="opacity:0.272" fill="#ffffff" d="M 154.5,133.5 C 154.5,144.5 154.5,155.5 154.5,166.5C 156.833,166.5 159.167,166.5 161.5,166.5C 161.5,155.5 161.5,144.5 161.5,133.5C 162.495,144.654 162.828,155.988 162.5,167.5C 159.5,167.5 156.5,167.5 153.5,167.5C 153.172,155.988 153.505,144.654 154.5,133.5 Z"/></g>
<g><path style="opacity:1" fill="#ffffff" d="M 156.5,135.5 C 157.708,136.234 159.041,136.567 160.5,136.5C 160.5,146.167 160.5,155.833 160.5,165.5C 158.833,165.5 157.167,165.5 155.5,165.5C 155.193,155.418 155.526,145.418 156.5,135.5 Z"/></g>
<g><path style="opacity:0.031" fill="#ffffff" d="M 96.5,144.5 C 97.7759,145.386 97.7759,146.386 96.5,147.5C 95.8933,147.376 95.56,147.043 95.5,146.5C 96.3382,146.158 96.6716,145.492 96.5,144.5 Z"/></g>
<g><path style="opacity:0.48" fill="#ffffff" d="M 103.5,133.5 C 102.508,133.328 101.842,133.662 101.5,134.5C 101.5,145.167 101.5,155.833 101.5,166.5C 103.833,166.5 106.167,166.5 108.5,166.5C 108.5,162.5 108.5,158.5 108.5,154.5C 112.298,153.517 116.298,153.183 120.5,153.5C 120.5,151.5 120.5,149.5 120.5,147.5C 116.298,147.817 112.298,147.483 108.5,146.5C 108.5,144.5 108.5,142.5 108.5,140.5C 113.167,140.5 117.833,140.5 122.5,140.5C 118.366,141.485 114.032,141.818 109.5,141.5C 109.5,143.167 109.5,144.833 109.5,146.5C 113.5,146.5 117.5,146.5 121.5,146.5C 121.5,149.167 121.5,151.833 121.5,154.5C 117.5,154.5 113.5,154.5 109.5,154.5C 109.5,158.833 109.5,163.167 109.5,167.5C 106.5,167.5 103.5,167.5 100.5,167.5C 100.5,155.833 100.5,144.167 100.5,132.5C 101.791,132.263 102.791,132.596 103.5,133.5 Z"/></g>
<g><path style="opacity:0.435" fill="#ffffff" d="M 128.5,133.5 C 128.5,133.833 128.5,134.167 128.5,134.5C 127.506,144.987 127.172,155.654 127.5,166.5C 134.833,166.5 142.167,166.5 149.5,166.5C 142.018,167.492 134.352,167.825 126.5,167.5C 126.333,156.162 126.5,144.828 127,133.5C 127.69,132.262 128.19,132.262 128.5,133.5 Z"/></g>
<g><path style="opacity:0.259" fill="#ffffff" d="M 88.5,154.5 C 91.3553,153.197 94.3553,153.197 97.5,154.5C 97.3764,155.107 97.0431,155.44 96.5,155.5C 94.0521,154.527 91.3854,154.194 88.5,154.5 Z"/></g>
<g><path style="opacity:0.204" fill="#ffffff" d="M 147.5,153.5 C 143.702,154.483 139.702,154.817 135.5,154.5C 135.5,156.167 135.5,157.833 135.5,159.5C 134.539,157.735 134.205,155.735 134.5,153.5C 138.833,153.5 143.167,153.5 147.5,153.5 Z"/></g>
<g><path style="opacity:1" fill="#ffffff" d="M 70.5,147.5 C 70.0216,151.338 71.0216,154.671 73.5,157.5C 73.1667,157.5 72.8333,157.5 72.5,157.5C 69.7026,157.033 68.3692,155.367 68.5,152.5C 69.1667,150.833 69.8333,149.167 70.5,147.5 Z"/></g>
<g><path style="opacity:1" fill="#ffffff" d="M 68.5,152.5 C 68.3692,155.367 69.7026,157.033 72.5,157.5C 72.5,158.5 72.5,159.5 72.5,160.5C 73.5,160.5 74.5,160.5 75.5,160.5C 75.7709,162.38 75.1042,163.713 73.5,164.5C 72.1667,164.5 70.8333,164.5 69.5,164.5C 64.9555,158.3 63.2888,151.3 64.5,143.5C 65.5,143.5 66.5,143.5 67.5,143.5C 67.3677,146.57 67.701,149.57 68.5,152.5 Z"/></g>
<g><path style="opacity:1" fill="#ffffff" d="M 128.5,144.5 C 130.384,144.712 131.717,145.712 132.5,147.5C 137.12,148.493 141.786,148.827 146.5,148.5C 146.5,149.5 146.5,150.5 146.5,151.5C 140.71,151.096 135.044,151.596 129.5,153C 131.403,156.364 133.403,159.698 135.5,163C 133.406,164.352 131.073,164.852 128.5,164.5C 128.5,157.833 128.5,151.167 128.5,144.5 Z"/></g>
<g><path style="opacity:1" fill="#ffffff" d="M 94.5,159.5 C 93.0953,163.236 90.4287,165.569 86.5,166.5C 86.0825,165.778 85.4158,165.278 84.5,165C 86.4357,164.187 88.4357,163.687 90.5,163.5C 90.4877,160.858 91.821,159.525 94.5,159.5 Z"/></g>
<g><path style="opacity:1" fill="#ffffff" d="M 134.5,146.5 C 134.833,146.5 135.167,146.5 135.5,146.5C 139.833,146.5 144.167,146.5 148.5,146.5C 148.175,149.192 147.842,151.525 147.5,153.5C 143.167,153.5 138.833,153.5 134.5,153.5C 134.205,155.735 134.539,157.735 135.5,159.5C 140.363,159.181 145.03,159.514 149.5,160.5C 147.744,161.552 147.077,163.219 147.5,165.5C 140.978,165.823 134.645,165.49 128.5,164.5C 131.073,164.852 133.406,164.352 135.5,163C 133.403,159.698 131.403,156.364 129.5,153C 135.044,151.596 140.71,151.096 146.5,151.5C 146.5,150.5 146.5,149.5 146.5,148.5C 142.5,147.833 138.5,147.167 134.5,146.5 Z"/></g>
<g><path style="opacity:1" fill="#ffffff" d="M 88.5,154.5 C 91.3854,154.194 94.0521,154.527 96.5,155.5C 96.7709,157.38 96.1042,158.713 94.5,159.5C 91.821,159.525 90.4877,160.858 90.5,163.5C 88.4357,163.687 86.4357,164.187 84.5,165C 85.4158,165.278 86.0825,165.778 86.5,166.5C 81.8781,166.844 77.5448,166.177 73.5,164.5C 75.1042,163.713 75.7709,162.38 75.5,160.5C 74.5,160.5 73.5,160.5 72.5,160.5C 72.5,159.5 72.5,158.5 72.5,157.5C 72.8333,157.5 73.1667,157.5 73.5,157.5C 74.7095,157.932 75.7095,158.599 76.5,159.5C 78.9664,160.634 81.633,160.801 84.5,160C 85.056,159.617 85.3893,159.117 85.5,158.5C 86.5116,157.128 87.5116,155.795 88.5,154.5 Z"/></g>
<g><path style="opacity:1" fill="#ffffff" d="M 85.5,158.5 C 85.3893,159.117 85.056,159.617 84.5,160C 81.633,160.801 78.9664,160.634 76.5,159.5C 79.5701,159.632 82.5701,159.299 85.5,158.5 Z"/></g>
<g><path style="opacity:1" fill="#ffffff" d="M 69.5,164.5 C 70.8333,164.5 72.1667,164.5 73.5,164.5C 77.5448,166.177 81.8781,166.844 86.5,166.5C 82.0614,168.903 77.3947,169.07 72.5,167C 71.0577,166.623 70.0577,165.79 69.5,164.5 Z"/></g>
</svg>
