<?xml version="1.0" standalone="no"?>
<!DOCTYPE svg PUBLIC "-//W3C//DTD SVG 20010904//EN"
 "http://www.w3.org/TR/2001/REC-SVG-20010904/DTD/svg10.dtd">
<svg version="1.0" xmlns="http://www.w3.org/2000/svg"
 width="571.000000pt" height="437.000000pt" viewBox="0 0 571.000000 437.000000"
 preserveAspectRatio="xMidYMid meet">

<g transform="translate(0.000000,437.000000) scale(0.100000,-0.100000)"
fill="#ffffff" stroke="none">
<path d="M2100 2180 l0 -290 55 0 55 0 0 125 0 125 181 0 180 0 -3 48 -3 47
-177 3 -178 2 0 65 0 65 211 0 210 0 -3 48 -3 47 -262 3 -263 2 0 -290z"/>
<path d="M2717 2463 c-4 -3 -7 -134 -7 -290 l0 -283 55 0 55 0 2 211 3 212
195 -211 195 -211 53 -1 52 0 0 291 0 290 -52 -3 -53 -3 -5 -202 -5 -202 -188
204 -189 205 -52 0 c-29 0 -56 -3 -59 -7z"/>
<path d="M3540 2184 c-77 -158 -140 -288 -140 -290 0 -2 26 -4 58 -4 l58 0 32
65 32 65 163 0 164 0 29 -65 29 -64 62 -1 62 0 -135 277 c-74 152 -140 283
-146 290 -6 8 -33 13 -69 13 l-59 0 -140 -286z m269 51 l50 -110 -111 -3 c-61
-1 -112 -1 -115 1 -2 2 21 57 52 122 32 69 59 115 64 109 5 -5 32 -58 60 -119z"/>
<path d="M4170 2180 l0 -290 55 0 55 0 0 290 0 290 -55 0 -55 0 0 -290z"/>
<path d="M4420 2180 l0 -290 50 0 50 0 2 213 3 212 90 -212 90 -213 46 0 46 0
71 168 c39 92 80 187 91 212 l20 45 0 -212 1 -213 50 0 50 0 0 290 0 290 -70
0 c-61 0 -71 -3 -83 -22 -8 -13 -50 -107 -93 -210 -43 -104 -81 -188 -84 -188
-3 0 -44 94 -91 208 l-85 207 -77 3 -77 3 0 -291z"/>
</g>
</svg>
